  0
SECTION
  2
HEADER
  9
$ACADVER
  1
AC1015
  9
$ACADMAINTVER
 70
     6
  9
$DWGCODEPAGE
  3
ANSI_1252
  9
$INSBASE
 10
0.0
 20
0.0
 30
0.0
  9
$EXTMIN
 10
1.000000000000000E+20
 20
1.000000000000000E+20
 30
1.000000000000000E+20
  9
$EXTMAX
 10
-1.000000000000000E+20
 20
-1.000000000000000E+20
 30
-1.000000000000000E+20
  9
$LIMMIN
 10
0.0
 20
0.0
  9
$LIMMAX
 10
12.0
 20
9.0
  9
$ORTHOMODE
 70
     0
  9
$REGENMODE
 70
     1
  9
$FILLMODE
 70
     1
  9
$QTEXTMODE
 70
     0
  9
$MIRRTEXT
 70
     1
  9
$LTSCALE
 40
1.0
  9
$ATTMODE
 70
     1
  9
$TEXTSIZE
 40
0.2
  9
$TRACEWID
 40
0.05
  9
$TEXTSTYLE
  7
Standard
  9
$CLAYER
  8
0
  9
$CELTYPE
  6
ByLayer
  9
$CECOLOR
 62
   256
  9
$CELTSCALE
 40
1.0
  9
$DISPSILH
 70
     0
  9
$DIMSCALE
 40
1.0
  9
$DIMASZ
 40
0.18
  9
$DIMEXO
 40
0.0625
  9
$DIMDLI
 40
0.38
  9
$DIMRND
 40
0.0
  9
$DIMDLE
 40
0.0
  9
$DIMEXE
 40
0.18
  9
$DIMTP
 40
0.0
  9
$DIMTM
 40
0.0
  9
$DIMTXT
 40
0.18
  9
$DIMCEN
 40
0.09
  9
$DIMTSZ
 40
0.0
  9
$DIMTOL
 70
     0
  9
$DIMLIM
 70
     0
  9
$DIMTIH
 70
     1
  9
$DIMTOH
 70
     1
  9
$DIMSE1
 70
     0
  9
$DIMSE2
 70
     0
  9
$DIMTAD
 70
     0
  9
$DIMZIN
 70
     0
  9
$DIMBLK
  1

  9
$DIMASO
 70
     1
  9
$DIMSHO
 70
     1
  9
$DIMPOST
  1

  9
$DIMAPOST
  1

  9
$DIMALT
 70
     0
  9
$DIMALTD
 70
     2
  9
$DIMALTF
 40
25.4
  9
$DIMLFAC
 40
1.0
  9
$DIMTOFL
 70
     0
  9
$DIMTVP
 40
0.0
  9
$DIMTIX
 70
     0
  9
$DIMSOXD
 70
     0
  9
$DIMSAH
 70
     0
  9
$DIMBLK1
  1

  9
$DIMBLK2
  1

  9
$DIMSTYLE
  2
Standard
  9
$DIMCLRD
 70
     0
  9
$DIMCLRE
 70
     0
  9
$DIMCLRT
 70
     0
  9
$DIMTFAC
 40
1.0
  9
$DIMGAP
 40
0.09
  9
$DIMJUST
 70
     0
  9
$DIMSD1
 70
     0
  9
$DIMSD2
 70
     0
  9
$DIMTOLJ
 70
     1
  9
$DIMTZIN
 70
     0
  9
$DIMALTZ
 70
     0
  9
$DIMALTTZ
 70
     0
  9
$DIMUPT
 70
     0
  9
$DIMDEC
 70
     4
  9
$DIMTDEC
 70
     4
  9
$DIMALTU
 70
     2
  9
$DIMALTTD
 70
     2
  9
$DIMTXSTY
  7
Standard
  9
$DIMAUNIT
 70
     0
  9
$DIMADEC
 70
     0
  9
$DIMALTRND
 40
0.0
  9
$DIMAZIN
 70
     0
  9
$DIMDSEP
 70
    46
  9
$DIMATFIT
 70
     3
  9
$DIMFRAC
 70
     0
  9
$DIMLDRBLK
  1

  9
$DIMLUNIT
 70
     2
  9
$DIMLWD
 70
    -2
  9
$DIMLWE
 70
    -2
  9
$DIMTMOVE
 70
     0
  9
$LUNITS
 70
     2
  9
$LUPREC
 70
     4
  9
$SKETCHINC
 40
0.1
  9
$FILLETRAD
 40
0.5
  9
$AUNITS
 70
     0
  9
$AUPREC
 70
     0
  9
$MENU
  1
.
  9
$ELEVATION
 40
0.0
  9
$PELEVATION
 40
0.0
  9
$THICKNESS
 40
0.0
  9
$LIMCHECK
 70
     0
  9
$CHAMFERA
 40
0.5
  9
$CHAMFERB
 40
0.5
  9
$CHAMFERC
 40
1.0
  9
$CHAMFERD
 40
0.0
  9
$SKPOLY
 70
     0
  9
$TDCREATE
 40
2460965.575122917
  9
$TDUCREATE
 40
2460965.491789583
  9
$TDUPDATE
 40
2460965.575122928
  9
$TDUUPDATE
 40
2460965.491789595
  9
$TDINDWG
 40
0.0000000116
  9
$TDUSRTIMER
 40
0.0000000116
  9
$USRTIMER
 70
     1
  9
$ANGBASE
 50
0.0
  9
$ANGDIR
 70
     0
  9
$PDMODE
 70
     0
  9
$PDSIZE
 40
0.0
  9
$PLINEWID
 40
0.0
  9
$SPLFRAME
 70
     0
  9
$SPLINETYPE
 70
     6
  9
$SPLINESEGS
 70
     8
  9
$HANDSEED
  5
EB
  9
$SURFTAB1
 70
     6
  9
$SURFTAB2
 70
     6
  9
$SURFTYPE
 70
     6
  9
$SURFU
 70
     6
  9
$SURFV
 70
     6
  9
$UCSBASE
  2

  9
$UCSNAME
  2

  9
$UCSORG
 10
0.0
 20
0.0
 30
0.0
  9
$UCSXDIR
 10
1.0
 20
0.0
 30
0.0
  9
$UCSYDIR
 10
0.0
 20
1.0
 30
0.0
  9
$UCSORTHOREF
  2

  9
$UCSORTHOVIEW
 70
     0
  9
$UCSORGTOP
 10
0.0
 20
0.0
 30
0.0
  9
$UCSORGBOTTOM
 10
0.0
 20
0.0
 30
0.0
  9
$UCSORGLEFT
 10
0.0
 20
0.0
 30
0.0
  9
$UCSORGRIGHT
 10
0.0
 20
0.0
 30
0.0
  9
$UCSORGFRONT
 10
0.0
 20
0.0
 30
0.0
  9
$UCSORGBACK
 10
0.0
 20
0.0
 30
0.0
  9
$PUCSBASE
  2

  9
$PUCSNAME
  2

  9
$PUCSORG
 10
0.0
 20
0.0
 30
0.0
  9
$PUCSXDIR
 10
1.0
 20
0.0
 30
0.0
  9
$PUCSYDIR
 10
0.0
 20
1.0
 30
0.0
  9
$PUCSORTHOREF
  2

  9
$PUCSORTHOVIEW
 70
     0
  9
$PUCSORGTOP
 10
0.0
 20
0.0
 30
0.0
  9
$PUCSORGBOTTOM
 10
0.0
 20
0.0
 30
0.0
  9
$PUCSORGLEFT
 10
0.0
 20
0.0
 30
0.0
  9
$PUCSORGRIGHT
 10
0.0
 20
0.0
 30
0.0
  9
$PUCSORGFRONT
 10
0.0
 20
0.0
 30
0.0
  9
$PUCSORGBACK
 10
0.0
 20
0.0
 30
0.0
  9
$USERI1
 70
     0
  9
$USERI2
 70
     0
  9
$USERI3
 70
     0
  9
$USERI4
 70
     0
  9
$USERI5
 70
     0
  9
$USERR1
 40
0.0
  9
$USERR2
 40
0.0
  9
$USERR3
 40
0.0
  9
$USERR4
 40
0.0
  9
$USERR5
 40
0.0
  9
$WORLDVIEW
 70
     1
  9
$SHADEDGE
 70
     3
  9
$SHADEDIF
 70
    70
  9
$TILEMODE
 70
     1
  9
$MAXACTVP
 70
    64
  9
$PINSBASE
 10
0.0
 20
0.0
 30
0.0
  9
$PLIMCHECK
 70
     0
  9
$PEXTMIN
 10
1.000000000000000E+20
 20
1.000000000000000E+20
 30
1.000000000000000E+20
  9
$PEXTMAX
 10
-1.000000000000000E+20
 20
-1.000000000000000E+20
 30
-1.000000000000000E+20
  9
$PLIMMIN
 10
0.0
 20
0.0
  9
$PLIMMAX
 10
12.0
 20
9.0
  9
$UNITMODE
 70
     0
  9
$VISRETAIN
 70
     1
  9
$PLINEGEN
 70
     0
  9
$PSLTSCALE
 70
     1
  9
$TREEDEPTH
 70
  3020
  9
$CMLSTYLE
  2
Standard
  9
$CMLJUST
 70
     0
  9
$CMLSCALE
 40
1.0
  9
$PROXYGRAPHICS
 70
     1
  9
$MEASUREMENT
 70
     0
  9
$CELWEIGHT
370
    -1
  9
$ENDCAPS
280
     0
  9
$JOINSTYLE
280
     0
  9
$LWDISPLAY
290
     1
  9
$INSUNITS
 70
     1
  9
$HYPERLINKBASE
  1

  9
$STYLESHEET
  1

  9
$XEDIT
290
     1
  9
$CEPSNTYPE
380
     0
  9
$PSTYLEMODE
290
     1
  9
$FINGERPRINTGUID
  2
{2105C1DE-E3D8-489C-9A64-0EEDFBC25A23}
  9
$VERSIONGUID
  2
{FAEB1C32-E019-11D5-929B-00C0DF256EC4}
  9
$EXTNAMES
290
     1
  9
$PSVPSCALE
 40
0.0
  9
$OLESTARTUP
290
     0
  0
ENDSEC
  0
SECTION
  2
CLASSES
  0
CLASS
  1
ACDBDICTIONARYWDFLT
  2
AcDbDictionaryWithDefault
  3
ObjectDBX Classes
 90
        0
280
     0
281
     0
  0
CLASS
  1
VISUALSTYLE
  2
AcDbVisualStyle
  3
ObjectDBX Classes
 90
     4095
280
     0
281
     0
  0
CLASS
  1
IMAGEDEF
  2
AcDbRasterImageDef
  3
ISM
 90
        0
280
     0
281
     0
  0
CLASS
  1
RASTERVARIABLES
  2
AcDbRasterVariables
  3
ISM
 90
        0
280
     0
281
     0
  0
CLASS
  1
IMAGE
  2
AcDbRasterImage
  3
ISM
 90
      127
280
     0
281
     1
  0
CLASS
  1
IMAGEDEF_REACTOR
  2
AcDbRasterImageDefReactor
  3
ISM
 90
        1
280
     0
281
     0
  0
CLASS
  1
ACDBPLACEHOLDER
  2
AcDbPlaceHolder
  3
ObjectDBX Classes
 90
        0
280
     0
281
     0
  0
CLASS
  1
LAYOUT
  2
AcDbLayout
  3
ObjectDBX Classes
 90
        0
280
     0
281
     0
  0
ENDSEC
  0
SECTION
  2
TABLES
  0
TABLE
  2
VPORT
  5
8
330
0
100
AcDbSymbolTable
 70
     1
  0
VPORT
  5
29
330
8
100
AcDbSymbolTableRecord
100
AcDbViewportTableRecord
  2
*Active
 70
     0
 10
0.0
 20
0.0
 11
1.0
 21
1.0
 12
0.0
 22
0.0
 13
0.0
 23
0.0
 14
0.5
 24
0.5
 15
0.5
 25
0.5
 16
0.0
 26
0.0
 36
1.0
 17
306.0
 27
396.0
 37
0.0
 40
792.0
 41
0.7727272727272727
 42
50.0
 43
0.0
 44
0.0
 50
0.0
 51
0.0
 71
     0
 72
   100
 73
     1
 74
     3
 75
     0
 76
     0
 77
     0
 78
     0
281
     0
 65
     1
110
0.0
120
0.0
130
0.0
111
1.0
121
0.0
131
0.0
112
0.0
122
1.0
132
0.0
 79
     0
146
0.0
  0
ENDTAB
  0
TABLE
  2
LTYPE
  5
5
330
0
100
AcDbSymbolTable
 70
     1
  0
LTYPE
  5
14
330
5
100
AcDbSymbolTableRecord
100
AcDbLinetypeTableRecord
  2
ByBlock
 70
     0
  3

 72
    65
 73
     0
 40
0.0
  0
LTYPE
  5
15
330
5
100
AcDbSymbolTableRecord
100
AcDbLinetypeTableRecord
  2
ByLayer
 70
     0
  3

 72
    65
 73
     0
 40
0.0
  0
LTYPE
  5
16
330
5
100
AcDbSymbolTableRecord
100
AcDbLinetypeTableRecord
  2
Continuous
 70
     0
  3
Solid line
 72
    65
 73
     0
 40
0.0
  0
ENDTAB
  0
TABLE
  2
LAYER
  5
2
330
0
100
AcDbSymbolTable
 70
     3
  0
LAYER
  5
10
330
2
100
AcDbSymbolTableRecord
100
AcDbLayerTableRecord
  2
0
 70
     0
 62
     7
  6
Continuous
370
    -3
390
F
  0
LAYER
  5
3B
330
2
100
AcDbSymbolTableRecord
100
AcDbLayerTableRecord
  2
Layer 1
 70
     5
 62
     7
  6
Continuous
370
    -3
390
F
  0
LAYER
  5
41
330
2
100
AcDbSymbolTableRecord
100
AcDbLayerTableRecord
  2
Layer 2
 70
     0
 62
     7
  6
Continuous
370
    -3
390
F
  0
ENDTAB
  0
TABLE
  2
STYLE
  5
3
330
0
100
AcDbSymbolTable
 70
     1
  0
STYLE
  5
11
330
3
100
AcDbSymbolTableRecord
100
AcDbTextStyleTableRecord
  2
Standard
 70
     0
 40
0.0
 41
1.0
 50
0.0
 71
     0
 42
0.2
  3
txt
  4

  0
ENDTAB
  0
TABLE
  2
VIEW
  5
6
330
0
100
AcDbSymbolTable
 70
     0
  0
ENDTAB
  0
TABLE
  2
UCS
  5
7
330
0
100
AcDbSymbolTable
 70
     0
  0
ENDTAB
  0
TABLE
  2
APPID
  5
9
330
0
100
AcDbSymbolTable
 70
     1
  0
APPID
  5
12
330
9
100
AcDbSymbolTableRecord
100
AcDbRegAppTableRecord
  2
ACAD
 70
     0
  0
ENDTAB
  0
TABLE
  2
DIMSTYLE
  5
A
330
0
100
AcDbSymbolTable
 70
     1
100
AcDbDimStyleTable
  0
DIMSTYLE
105
27
330
A
100
AcDbSymbolTableRecord
100
AcDbDimStyleTableRecord
  2
Standard
 70
     0
340
11
  0
ENDTAB
  0
TABLE
  2
BLOCK_RECORD
  5
1
330
0
100
AcDbSymbolTable
 70
     3
  0
BLOCK_RECORD
  5
1F
330
1
100
AcDbSymbolTableRecord
100
AcDbBlockTableRecord
  2
*Model_Space
340
22
  0
BLOCK_RECORD
  5
1B
330
1
100
AcDbSymbolTableRecord
100
AcDbBlockTableRecord
  2
*Paper_Space
340
1E
  0
BLOCK_RECORD
  5
23
330
1
100
AcDbSymbolTableRecord
100
AcDbBlockTableRecord
  2
*Paper_Space0
340
26
  0
BLOCK_RECORD
  5
D2
330
1
100
AcDbSymbolTableRecord
100
AcDbBlockTableRecord
  2
block 2
340
0
102
{BLKREFS
331
D3
102
}
  0
BLOCK_RECORD
  5
DE
330
1
100
AcDbSymbolTableRecord
100
AcDbBlockTableRecord
  2
block 3
340
0
102
{BLKREFS
331
DF
102
}
  0
ENDTAB
  0
ENDSEC
  0
SECTION
  2
BLOCKS
  0
BLOCK
  5
20
330
1F
100
AcDbEntity
  8
0
100
AcDbBlockBegin
  2
*Model_Space
 70
     0
 71
     0
 10
0.0
 20
0.0
 30
0.0
  3
*Model_Space
  1

  0
ENDBLK
  5
21
330
1F
100
AcDbEntity
  8
0
100
AcDbBlockEnd
  0
BLOCK
  5
1C
330
1B
100
AcDbEntity
 67
     1
  8
0
100
AcDbBlockBegin
  2
*Paper_Space
 70
     0
 71
     0
 10
0.0
 20
0.0
 30
0.0
  3
*Paper_Space
  1

  0
ENDBLK
  5
1D
330
1B
100
AcDbEntity
 67
     1
  8
0
100
AcDbBlockEnd
  0
BLOCK
  5
24
330
23
100
AcDbEntity
  8
0
100
AcDbBlockBegin
  2
*Paper_Space0
 70
     0
 71
     0
 10
0.0
 20
0.0
 30
0.0
  3
*Paper_Space0
  1

  0
ENDBLK
  5
25
330
23
100
AcDbEntity
  8
0
100
AcDbBlockEnd
  0
BLOCK
  5
D4
330
D2
100
AcDbEntity
  8
0
100
AcDbBlockBegin
  2
block 2
 70
     0
 71
     0
 10
0.0
 20
0.0
 30
0.0
  3
block 2
  1

  0
SPLINE
  5
D6
330
D2
100
AcDbEntity
  8
Layer 2
 62
     7
370
    35
100
AcDbSpline
210
0.0
220
0.0
230
1.0
 70
    11
 71
     3
 72
    11
 73
     7
 74
     0
 42
0.0000000001
 43
0.0000000001
 40
0.0
 40
0.0
 40
0.0
 40
0.0
 40
1.0
 40
1.0
 40
1.0
 40
2.0
 40
2.0
 40
2.0
 40
2.0
 10
186.75
 20
430.8779296875
 30
0.0
 10
186.75
 20
430.8779296875
 30
0.0
 10
161.0
 20
422.958984375
 30
0.0
 10
161.25
 20
382.2294921875
 30
0.0
 10
161.25
 20
382.2294921875
 30
0.0
 10
180.228515625
 20
428.470703125
 30
0.0
 10
186.75
 20
430.8779296875
 30
0.0
  0
SPLINE
  5
D7
330
D2
100
AcDbEntity
  8
Layer 2
 62
     7
370
    35
100
AcDbSpline
210
0.0
220
0.0
230
1.0
 70
    11
 71
     3
 72
    20
 73
    16
 74
     0
 42
0.0000000001
 43
0.0000000001
 40
0.0
 40
0.0
 40
0.0
 40
0.0
 40
1.0
 40
1.0
 40
1.0
 40
2.0
 40
2.0
 40
2.0
 40
3.0
 40
3.0
 40
3.0
 40
4.0
 40
4.0
 40
4.0
 40
5.0
 40
5.0
 40
5.0
 40
5.0
 10
159.0
 20
401.83740234375
 30
0.0
 10
159.0
 20
401.83740234375
 30
0.0
 10
147.25
 20
391.244140625
 30
0.0
 10
156.25
 20
357.4970703125
 30
0.0
 10
156.25
 20
357.4970703125
 30
0.0
 10
156.75
 20
363.66015625
 30
0.0
 10
165.5
 20
373.080078125
 30
0.0
 10
165.5
 20
373.080078125
 30
0.0
 10
169.25
 20
373.66015625
 30
0.0
 10
176.75
 20
398.955078125
 30
0.0
 10
176.75
 20
398.955078125
 30
0.0
 10
165.673828125
 20
378.7705078125
 30
0.0
 10
159.5
 20
375.654296875
 30
0.0
 10
159.5
 20
375.654296875
 30
0.0
 10
159.0
 20
401.83740234375
 30
0.0
 10
159.0
 20
401.83740234375
 30
0.0
  0
SPLINE
  5
D8
330
D2
100
AcDbEntity
  8
Layer 2
 62
     7
370
    35
100
AcDbSpline
210
0.0
220
0.0
230
1.0
 70
    11
 71
     3
 72
    26
 73
    22
 74
     0
 42
0.0000000001
 43
0.0000000001
 40
0.0
 40
0.0
 40
0.0
 40
0.0
 40
1.0
 40
1.0
 40
1.0
 40
2.0
 40
2.0
 40
2.0
 40
3.0
 40
3.0
 40
3.0
 40
4.0
 40
4.0
 40
4.0
 40
5.0
 40
5.0
 40
5.0
 40
6.0
 40
6.0
 40
6.0
 40
7.0
 40
7.0
 40
7.0
 40
7.0
 10
150.5
 20
378.5634765625
 30
0.0
 10
150.5
 20
378.5634765625
 30
0.0
 10
145.30029296875
 20
365.4091796875
 30
0.0
 10
149.9287109375
 20
348.5
 30
0.0
 10
151.35009765625
 20
343.3056640625
 30
0.0
 10
156.3251953125
 20
339.30078125
 30
0.0
 10
159.3212890625
 20
333.25
 30
0.0
 10
159.3212890625
 20
333.25
 30
0.0
 10
160.47265625
 20
341.751953125
 30
0.0
 10
163.25
 20
349.75
 30
0.0
 10
165.1474609375
 20
355.21484375
 30
0.0
 10
168.337890625
 20
359.28125
 30
0.0
 10
170.33349609375
 20
364.830078125
 30
0.0
 10
170.3330078125
 20
364.830078125
 30
0.0
 10
164.0341796875
 20
359.6787109375
 30
0.0
 10
159.861328125
 20
354.2373046875
 30
0.0
 10
157.794921875
 20
351.54296875
 30
0.0
 10
157.5
 20
347.49609375
 30
0.0
 10
157.5
 20
345.25
 30
0.0
 10
157.5
 20
345.25
 30
0.0
 10
151.3095703125
 20
356.541015625
 30
0.0
 10
150.5
 20
378.5634765625
 30
0.0
  0
SPLINE
  5
D9
330
D2
100
AcDbEntity
  8
Layer 2
 62
     7
370
    35
100
AcDbSpline
210
0.0
220
0.0
230
1.0
 70
    11
 71
     3
 72
    20
 73
    16
 74
     0
 42
0.0000000001
 43
0.0000000001
 40
0.0
 40
0.0
 40
0.0
 40
0.0
 40
1.0
 40
1.0
 40
1.0
 40
2.0
 40
2.0
 40
2.0
 40
3.0
 40
3.0
 40
3.0
 40
4.0
 40
4.0
 40
4.0
 40
5.0
 40
5.0
 40
5.0
 40
5.0
 10
148.30859375
 20
341.19140625
 30
0.0
 10
148.30859375
 20
341.19140625
 30
0.0
 10
149.83349609375
 20
313.25
 30
0.0
 10
170.33349609375
 20
298.75
 30
0.0
 10
170.33349609375
 20
298.75
 30
0.0
 10
168.25
 20
338.75
 30
0.0
 10
169.25
 20
345.5
 30
0.0
 10
170.2392578125
 20
352.177734375
 30
0.0
 10
163.013671875
 20
340.994140625
 30
0.0
 10
164.74365234375
 20
310.4970703125
 30
0.0
 10
164.7626953125
 20
310.1669921875
 30
0.0
 10
162.0009765625
 20
313.7978515625
 30
0.0
 10
164.80322265625
 20
309.5
 30
0.0
 10
164.80322265625
 20
309.5
 30
0.0
 10
151.1171875
 20
329.6328125
 30
0.0
 10
148.30859375
 20
341.19140625
 30
0.0
  0
SPLINE
  5
DA
330
D2
100
AcDbEntity
  8
Layer 2
 62
     7
370
    35
100
AcDbSpline
210
0.0
220
0.0
230
1.0
 70
    11
 71
     3
 72
    20
 73
    16
 74
     0
 42
0.0000000001
 43
0.0000000001
 40
0.0
 40
0.0
 40
0.0
 40
0.0
 40
1.0
 40
1.0
 40
1.0
 40
2.0
 40
2.0
 40
2.0
 40
3.0
 40
3.0
 40
3.0
 40
4.0
 40
4.0
 40
4.0
 40
5.0
 40
5.0
 40
5.0
 40
5.0
 10
176.75
 20
313.0
 30
0.0
 10
176.75
 20
313.0
 30
0.0
 10
171.5
 20
299.75
 30
0.0
 10
186.75
 20
282.5
 30
0.0
 10
202.0
 20
265.25
 30
0.0
 10
161.75
 20
299.5
 30
0.0
 10
154.0
 20
314.75
 30
0.0
 10
146.25
 20
330.0
 30
0.0
 10
152.8564453125
 20
314.75
 30
0.0
 10
152.8564453125
 20
314.75
 30
0.0
 10
152.8564453125
 20
314.75
 30
0.0
 10
148.25
 20
290.75
 30
0.0
 10
201.0
 20
268.0
 30
0.0
 10
201.0
 20
268.0
 30
0.0
 10
179.0
 20
302.0
 30
0.0
 10
176.75
 20
313.0
 30
0.0
  0
SPLINE
  5
DB
330
D2
100
AcDbEntity
  8
Layer 2
 62
     7
370
    35
100
AcDbSpline
210
0.0
220
0.0
230
1.0
 70
    11
 71
     3
 72
    20
 73
    16
 74
     0
 42
0.0000000001
 43
0.0000000001
 40
0.0
 40
0.0
 40
0.0
 40
0.0
 40
1.0
 40
1.0
 40
1.0
 40
2.0
 40
2.0
 40
2.0
 40
3.0
 40
3.0
 40
3.0
 40
4.0
 40
4.0
 40
4.0
 40
5.0
 40
5.0
 40
5.0
 40
5.0
 10
196.25
 20
288.5
 30
0.0
 10
196.25
 20
288.5
 30
0.0
 10
229.138671875
 20
251.53125
 30
0.0
 10
242.22119140625
 20
244.166015625
 30
0.0
 10
242.4892578125
 20
244.0146484375
 30
0.0
 10
242.7490234375
 20
243.8759765625
 30
0.0
 10
243.0
 20
243.75
 30
0.0
 10
255.5
 20
237.5
 30
0.0
 10
183.90087890625
 20
255.7509765625
 30
0.0
 10
168.75
 20
281.75
 30
0.0
 10
168.75
 20
281.75
 30
0.0
 10
210.75
 20
253.5
 30
0.0
 10
226.0
 20
251.5
 30
0.0
 10
226.0
 20
251.5
 30
0.0
 10
197.0
 20
277.5
 30
0.0
 10
196.25
 20
288.5
 30
0.0
  0
SPLINE
  5
DC
330
D2
100
AcDbEntity
  8
Layer 2
 62
     7
370
    35
100
AcDbSpline
210
0.0
220
0.0
230
1.0
 70
    11
 71
     3
 72
    17
 73
    13
 74
     0
 42
0.0000000001
 43
0.0000000001
 40
0.0
 40
0.0
 40
0.0
 40
0.0
 40
1.0
 40
1.0
 40
1.0
 40
2.0
 40
2.0
 40
2.0
 40
3.0
 40
3.0
 40
3.0
 40
4.0
 40
4.0
 40
4.0
 40
4.0
 10
228.25
 20
261.25
 30
0.0
 10
227.81201171875
 20
262.0380859375
 30
0.0
 10
253.25
 20
242.25
 30
0.0
 10
279.25
 20
235.5
 30
0.0
 10
279.25
 20
235.5
 30
0.0
 10
232.25
 20
226.0
 30
0.0
 10
207.75
 20
245.75
 30
0.0
 10
207.75
 20
245.75
 30
0.0
 10
240.0
 20
235.33203125
 30
0.0
 10
258.0
 20
239.416015625
 30
0.0
 10
258.0
 20
239.416015625
 30
0.0
 10
233.25
 20
252.25
 30
0.0
 10
228.25
 20
261.25
 30
0.0
  0
SPLINE
  5
DD
330
D2
100
AcDbEntity
  8
Layer 2
 62
     7
370
    35
100
AcDbSpline
210
0.0
220
0.0
230
1.0
 70
    11
 71
     3
 72
    23
 73
    19
 74
     0
 42
0.0000000001
 43
0.0000000001
 40
0.0
 40
0.0
 40
0.0
 40
0.0
 40
1.0
 40
1.0
 40
1.0
 40
2.0
 40
2.0
 40
2.0
 40
3.0
 40
3.0
 40
3.0
 40
4.0
 40
4.0
 40
4.0
 40
5.0
 40
5.0
 40
5.0
 40
6.0
 40
6.0
 40
6.0
 40
6.0
 10
303.505859375
 20
233.2158203125
 30
0.0
 10
303.505859375
 20
233.2158203125
 30
0.0
 10
285.75
 20
231.5
 30
0.0
 10
280.5
 20
228.5
 30
0.0
 10
275.38232421875
 20
225.5751953125
 30
0.0
 10
256.958984375
 20
224.0771484375
 30
0.0
 10
244.45556640625
 20
228.171875
 30
0.0
 10
244.13330078125
 20
228.27734375
 30
0.0
 10
243.814453125
 20
228.38671875
 30
0.0
 10
243.5
 20
228.5
 30
0.0
 10
231.0
 20
233.0
 30
0.0
 10
254.3486328125
 20
214.75
 30
0.0
 10
283.79931640625
 20
220.5
 30
0.0
 10
283.79931640625
 20
220.5
 30
0.0
 10
298.326171875
 20
232.833984375
 30
0.0
 10
307.2880859375
 20
231.2919921875
 30
0.0
 10
307.2880859375
 20
231.2919921875
 30
0.0
 10
303.505859375
 20
233.2158203125
 30
0.0
 10
303.505859375
 20
233.2158203125
 30
0.0
  0
ENDBLK
  5
D5
330
D2
100
AcDbEntity
  8
0
100
AcDbBlockEnd
  0
BLOCK
  5
E0
330
DE
100
AcDbEntity
  8
0
100
AcDbBlockBegin
  2
block 3
 70
     0
 71
     0
 10
0.0
 20
0.0
 30
0.0
  3
block 3
  1

  0
SPLINE
  5
E2
330
DE
100
AcDbEntity
  8
Layer 2
 62
     7
370
    35
100
AcDbSpline
210
0.0
220
0.0
230
1.0
 70
    11
 71
     3
 72
    11
 73
     7
 74
     0
 42
0.0000000001
 43
0.0000000001
 40
0.0
 40
0.0
 40
0.0
 40
0.0
 40
1.0
 40
1.0
 40
1.0
 40
2.0
 40
2.0
 40
2.0
 40
2.0
 10
460.3525390625
 20
432.671875
 30
0.0
 10
460.3525390625
 20
432.671875
 30
0.0
 10
486.1025390625
 20
424.7529296875
 30
0.0
 10
485.8525390625
 20
384.0234375
 30
0.0
 10
485.8525390625
 20
384.0234375
 30
0.0
 10
466.8740234375
 20
430.2646484375
 30
0.0
 10
460.3525390625
 20
432.671875
 30
0.0
  0
SPLINE
  5
E3
330
DE
100
AcDbEntity
  8
Layer 2
 62
     7
370
    35
100
AcDbSpline
210
0.0
220
0.0
230
1.0
 70
    11
 71
     3
 72
    20
 73
    16
 74
     0
 42
0.0000000001
 43
0.0000000001
 40
0.0
 40
0.0
 40
0.0
 40
0.0
 40
1.0
 40
1.0
 40
1.0
 40
2.0
 40
2.0
 40
2.0
 40
3.0
 40
3.0
 40
3.0
 40
4.0
 40
4.0
 40
4.0
 40
5.0
 40
5.0
 40
5.0
 40
5.0
 10
488.1025390625
 20
403.6318359375
 30
0.0
 10
488.1025390625
 20
403.6318359375
 30
0.0
 10
499.8525390625
 20
393.0380859375
 30
0.0
 10
490.8525390625
 20
359.291015625
 30
0.0
 10
490.8525390625
 20
359.291015625
 30
0.0
 10
490.3525390625
 20
365.4541015625
 30
0.0
 10
481.6025390625
 20
374.8740234375
 30
0.0
 10
481.6025390625
 20
374.8740234375
 30
0.0
 10
477.8525390625
 20
375.4541015625
 30
0.0
 10
470.3525390625
 20
400.7490234375
 30
0.0
 10
470.3525390625
 20
400.7490234375
 30
0.0
 10
481.4287109375
 20
380.564453125
 30
0.0
 10
487.6025390625
 20
377.4482421875
 30
0.0
 10
487.6025390625
 20
377.4482421875
 30
0.0
 10
488.1025390625
 20
403.6318359375
 30
0.0
 10
488.1025390625
 20
403.6318359375
 30
0.0
  0
SPLINE
  5
E4
330
DE
100
AcDbEntity
  8
Layer 2
 62
     7
370
    35
100
AcDbSpline
210
0.0
220
0.0
230
1.0
 70
    11
 71
     3
 72
    26
 73
    22
 74
     0
 42
0.0000000001
 43
0.0000000001
 40
0.0
 40
0.0
 40
0.0
 40
0.0
 40
1.0
 40
1.0
 40
1.0
 40
2.0
 40
2.0
 40
2.0
 40
3.0
 40
3.0
 40
3.0
 40
4.0
 40
4.0
 40
4.0
 40
5.0
 40
5.0
 40
5.0
 40
6.0
 40
6.0
 40
6.0
 40
7.0
 40
7.0
 40
7.0
 40
7.0
 10
496.6025390625
 20
380.357421875
 30
0.0
 10
496.6025390625
 20
380.357421875
 30
0.0
 10
501.802734375
 20
367.203125
 30
0.0
 10
497.173828125
 20
350.2939453125
 30
0.0
 10
495.751953125
 20
345.099609375
 30
0.0
 10
490.77734375
 20
341.0947265625
 30
0.0
 10
487.78125
 20
335.0439453125
 30
0.0
 10
487.78125
 20
335.0439453125
 30
0.0
 10
486.6298828125
 20
343.5458984375
 30
0.0
 10
483.8525390625
 20
351.5439453125
 30
0.0
 10
481.955078125
 20
357.0087890625
 30
0.0
 10
478.7646484375
 20
361.0751953125
 30
0.0
 10
476.76953125
 20
366.6240234375
 30
0.0
 10
476.76953125
 20
366.6240234375
 30
0.0
 10
483.068359375
 20
361.47265625
 30
0.0
 10
487.2412109375
 20
356.03125
 30
0.0
 10
489.3076171875
 20
353.3369140625
 30
0.0
 10
489.6025390625
 20
349.2900390625
 30
0.0
 10
489.6025390625
 20
347.0439453125
 30
0.0
 10
489.6025390625
 20
347.0439453125
 30
0.0
 10
495.79296875
 20
358.3349609375
 30
0.0
 10
496.6025390625
 20
380.357421875
 30
0.0
  0
SPLINE
  5
E5
330
DE
100
AcDbEntity
  8
Layer 2
 62
     7
370
    35
100
AcDbSpline
210
0.0
220
0.0
230
1.0
 70
    11
 71
     3
 72
    20
 73
    16
 74
     0
 42
0.0000000001
 43
0.0000000001
 40
0.0
 40
0.0
 40
0.0
 40
0.0
 40
1.0
 40
1.0
 40
1.0
 40
2.0
 40
2.0
 40
2.0
 40
3.0
 40
3.0
 40
3.0
 40
4.0
 40
4.0
 40
4.0
 40
5.0
 40
5.0
 40
5.0
 40
5.0
 10
498.7939453125
 20
342.9853515625
 30
0.0
 10
498.7939453125
 20
342.9853515625
 30
0.0
 10
497.26953125
 20
315.0439453125
 30
0.0
 10
476.76953125
 20
300.5439453125
 30
0.0
 10
476.76953125
 20
300.5439453125
 30
0.0
 10
478.8525390625
 20
340.5439453125
 30
0.0
 10
477.8525390625
 20
347.2939453125
 30
0.0
 10
476.86328125
 20
353.9716796875
 30
0.0
 10
484.0888671875
 20
342.7880859375
 30
0.0
 10
482.359375
 20
312.291015625
 30
0.0
 10
482.33984375
 20
311.9609375
 30
0.0
 10
485.1015625
 20
315.591796875
 30
0.0
 10
482.298828125
 20
311.2939453125
 30
0.0
 10
482.298828125
 20
311.2939453125
 30
0.0
 10
495.9853515625
 20
331.4267578125
 30
0.0
 10
498.7939453125
 20
342.9853515625
 30
0.0
  0
SPLINE
  5
E6
330
DE
100
AcDbEntity
  8
Layer 2
 62
     7
370
    35
100
AcDbSpline
210
0.0
220
0.0
230
1.0
 70
    11
 71
     3
 72
    20
 73
    16
 74
     0
 42
0.0000000001
 43
0.0000000001
 40
0.0
 40
0.0
 40
0.0
 40
0.0
 40
1.0
 40
1.0
 40
1.0
 40
2.0
 40
2.0
 40
2.0
 40
3.0
 40
3.0
 40
3.0
 40
4.0
 40
4.0
 40
4.0
 40
5.0
 40
5.0
 40
5.0
 40
5.0
 10
470.3525390625
 20
314.7939453125
 30
0.0
 10
470.3525390625
 20
314.7939453125
 30
0.0
 10
475.6025390625
 20
301.5439453125
 30
0.0
 10
460.3525390625
 20
284.2939453125
 30
0.0
 10
445.1025390625
 20
267.0439453125
 30
0.0
 10
485.3525390625
 20
301.2939453125
 30
0.0
 10
493.1025390625
 20
316.5439453125
 30
0.0
 10
500.8525390625
 20
331.7939453125
 30
0.0
 10
494.24609375
 20
316.5439453125
 30
0.0
 10
494.24609375
 20
316.5439453125
 30
0.0
 10
494.24609375
 20
316.5439453125
 30
0.0
 10
498.8525390625
 20
292.5439453125
 30
0.0
 10
446.1025390625
 20
269.7939453125
 30
0.0
 10
446.1025390625
 20
269.7939453125
 30
0.0
 10
468.1025390625
 20
303.7939453125
 30
0.0
 10
470.3525390625
 20
314.7939453125
 30
0.0
  0
SPLINE
  5
E7
330
DE
100
AcDbEntity
  8
Layer 2
 62
     7
370
    35
100
AcDbSpline
210
0.0
220
0.0
230
1.0
 70
    11
 71
     3
 72
    20
 73
    16
 74
     0
 42
0.0000000001
 43
0.0000000001
 40
0.0
 40
0.0
 40
0.0
 40
0.0
 40
1.0
 40
1.0
 40
1.0
 40
2.0
 40
2.0
 40
2.0
 40
3.0
 40
3.0
 40
3.0
 40
4.0
 40
4.0
 40
4.0
 40
5.0
 40
5.0
 40
5.0
 40
5.0
 10
450.8525390625
 20
290.2939453125
 30
0.0
 10
450.8525390625
 20
290.2939453125
 30
0.0
 10
417.9638671875
 20
253.3251953125
 30
0.0
 10
404.8818359375
 20
245.9599609375
 30
0.0
 10
404.61328125
 20
245.80859375
 30
0.0
 10
404.353515625
 20
245.669921875
 30
0.0
 10
404.1025390625
 20
245.5439453125
 30
0.0
 10
391.6025390625
 20
239.2939453125
 30
0.0
 10
463.201171875
 20
257.544921875
 30
0.0
 10
478.3525390625
 20
283.5439453125
 30
0.0
 10
478.3525390625
 20
283.5439453125
 30
0.0
 10
436.3525390625
 20
255.2939453125
 30
0.0
 10
421.1025390625
 20
253.2939453125
 30
0.0
 10
421.1025390625
 20
253.2939453125
 30
0.0
 10
450.1025390625
 20
279.2939453125
 30
0.0
 10
450.8525390625
 20
290.2939453125
 30
0.0
  0
SPLINE
  5
E8
330
DE
100
AcDbEntity
  8
Layer 2
 62
     7
370
    35
100
AcDbSpline
210
0.0
220
0.0
230
1.0
 70
    11
 71
     3
 72
    17
 73
    13
 74
     0
 42
0.0000000001
 43
0.0000000001
 40
0.0
 40
0.0
 40
0.0
 40
0.0
 40
1.0
 40
1.0
 40
1.0
 40
2.0
 40
2.0
 40
2.0
 40
3.0
 40
3.0
 40
3.0
 40
4.0
 40
4.0
 40
4.0
 40
4.0
 10
418.8525390625
 20
263.0439453125
 30
0.0
 10
419.291015625
 20
263.83203125
 30
0.0
 10
393.8525390625
 20
244.0439453125
 30
0.0
 10
367.8525390625
 20
237.2939453125
 30
0.0
 10
367.8525390625
 20
237.2939453125
 30
0.0
 10
414.8525390625
 20
227.7939453125
 30
0.0
 10
439.3525390625
 20
247.5439453125
 30
0.0
 10
439.3525390625
 20
247.5439453125
 30
0.0
 10
407.1025390625
 20
237.1259765625
 30
0.0
 10
389.1025390625
 20
241.2099609375
 30
0.0
 10
389.1025390625
 20
241.2099609375
 30
0.0
 10
413.8525390625
 20
254.0439453125
 30
0.0
 10
418.8525390625
 20
263.0439453125
 30
0.0
  0
SPLINE
  5
E9
330
DE
100
AcDbEntity
  8
Layer 2
 62
     7
370
    35
100
AcDbSpline
210
0.0
220
0.0
230
1.0
 70
    11
 71
     3
 72
    23
 73
    19
 74
     0
 42
0.0000000001
 43
0.0000000001
 40
0.0
 40
0.0
 40
0.0
 40
0.0
 40
1.0
 40
1.0
 40
1.0
 40
2.0
 40
2.0
 40
2.0
 40
3.0
 40
3.0
 40
3.0
 40
4.0
 40
4.0
 40
4.0
 40
5.0
 40
5.0
 40
5.0
 40
6.0
 40
6.0
 40
6.0
 40
6.0
 10
343.5966796875
 20
235.009765625
 30
0.0
 10
343.5966796875
 20
235.009765625
 30
0.0
 10
361.3525390625
 20
233.2939453125
 30
0.0
 10
366.6025390625
 20
230.2939453125
 30
0.0
 10
371.7197265625
 20
227.369140625
 30
0.0
 10
390.1435546875
 20
225.87109375
 30
0.0
 10
402.6474609375
 20
229.9658203125
 30
0.0
 10
402.9697265625
 20
230.0712890625
 30
0.0
 10
403.2880859375
 20
230.1806640625
 30
0.0
 10
403.6025390625
 20
230.2939453125
 30
0.0
 10
416.1025390625
 20
234.7939453125
 30
0.0
 10
392.75390625
 20
216.5439453125
 30
0.0
 10
363.3037109375
 20
222.2939453125
 30
0.0
 10
363.3037109375
 20
222.2939453125
 30
0.0
 10
348.7763671875
 20
234.6279296875
 30
0.0
 10
339.814453125
 20
233.0859375
 30
0.0
 10
339.814453125
 20
233.0859375
 30
0.0
 10
343.5966796875
 20
235.009765625
 30
0.0
 10
343.5966796875
 20
235.009765625
 30
0.0
  0
ENDBLK
  5
E1
330
DE
100
AcDbEntity
  8
0
100
AcDbBlockEnd
  0
ENDSEC
  0
SECTION
  2
ENTITIES
  0
IMAGE
  5
3F
330
1F
100
AcDbEntity
  8
Layer 1
 92
        8
310
0800000000000000
100
AcDbRasterImage
 90
        0
 10
110.0
 20
148.5
 30
0.0
 11
2.85
 21
0.0
 31
0.0
 12
0.0
 22
2.85
 32
0.0
 13
150.0
 23
180.0
340
3D
 70
     3
280
     0
281
    50
282
    50
283
     0
360
40
 71
     1
 91
        2
 14
-0.5
 24
-0.5
 14
149.5
 24
179.5
  0
SPLINE
  5
42
330
1F
100
AcDbEntity
  8
Layer 2
 62
     7
370
    35
100
AcDbSpline
210
0.0
220
0.0
230
1.0
 70
    11
 71
     3
 72
    38
 73
    34
 74
     0
 42
0.0000000001
 43
0.0000000001
 40
0.0
 40
0.0
 40
0.0
 40
0.0
 40
1.0
 40
1.0
 40
1.0
 40
2.0
 40
2.0
 40
2.0
 40
3.0
 40
3.0
 40
3.0
 40
4.0
 40
4.0
 40
4.0
 40
5.0
 40
5.0
 40
5.0
 40
6.0
 40
6.0
 40
6.0
 40
7.0
 40
7.0
 40
7.0
 40
8.0
 40
8.0
 40
8.0
 40
9.0
 40
9.0
 40
9.0
 40
10.0
 40
10.0
 40
10.0
 40
11.0
 40
11.0
 40
11.0
 40
11.0
 10
446.8779296875
 20
212.87890625
 30
0.0
 10
419.5703125
 20
200.1826171875
 30
0.0
 10
329.279296875
 20
157.8623046875
 30
0.0
 10
325.25
 20
151.5
 30
0.0
 10
325.25
 20
151.5
 30
0.0
 10
237.5
 20
197.0
 30
0.0
 10
210.5
 20
207.0
 30
0.0
 10
210.5
 20
207.0
 30
0.0
 10
81.5
 20
281.5
 30
0.0
 10
138.0
 20
410.5
 30
0.0
 10
138.0
 20
410.5
 30
0.0
 10
173.0
 20
489.0
 30
0.0
 10
115.0
 20
528.5
 30
0.0
 10
115.0
 20
528.5
 30
0.0
 10
169.5
 20
626.5
 30
0.0
 10
169.5
 20
626.5
 30
0.0
 10
169.5
 20
626.5
 30
0.0
 10
250.5
 20
604.0
 30
0.0
 10
323.75
 20
658.5
 30
0.0
 10
323.75
 20
658.5
 30
0.0
 10
401.0
 20
601.5
 30
0.0
 10
478.5
 20
629.0
 30
0.0
 10
478.5
 20
629.0
 30
0.0
 10
535.5
 20
528.5
 30
0.0
 10
535.5
 20
528.5
 30
0.0
 10
535.5
 20
528.5
 30
0.0
 10
472.5
 20
491.0
 30
0.0
 10
517.0
 20
399.0
 30
0.0
 10
517.0
 20
399.0
 30
0.0
 10
566.91015625
 20
305.8974609375
 30
0.0
 10
460.798828125
 20
221.25
 30
0.0
 10
460.798828125
 20
221.25
 30
0.0
 10
446.8779296875
 20
212.87890625
 30
0.0
 10
446.8779296875
 20
212.87890625
 30
0.0
  0
SPLINE
  5
43
330
1F
100
AcDbEntity
  8
Layer 2
 62
     7
370
    35
100
AcDbSpline
210
0.0
220
0.0
230
1.0
 70
    11
 71
     3
 72
    38
 73
    34
 74
     0
 42
0.0000000001
 43
0.0000000001
 40
0.0
 40
0.0
 40
0.0
 40
0.0
 40
1.0
 40
1.0
 40
1.0
 40
2.0
 40
2.0
 40
2.0
 40
3.0
 40
3.0
 40
3.0
 40
4.0
 40
4.0
 40
4.0
 40
5.0
 40
5.0
 40
5.0
 40
6.0
 40
6.0
 40
6.0
 40
7.0
 40
7.0
 40
7.0
 40
8.0
 40
8.0
 40
8.0
 40
9.0
 40
9.0
 40
9.0
 40
10.0
 40
10.0
 40
10.0
 40
11.0
 40
11.0
 40
11.0
 40
11.0
 10
436.802734375
 20
228.7939453125
 30
0.0
 10
411.7568359375
 20
217.1494140625
 30
0.0
 10
328.9453125
 20
178.3349609375
 30
0.0
 10
325.25
 20
172.5
 30
0.0
 10
325.25
 20
172.5
 30
0.0
 10
244.76953125
 20
214.23046875
 30
0.0
 10
220.005859375
 20
223.40234375
 30
0.0
 10
220.005859375
 20
223.40234375
 30
0.0
 10
101.6923828125
 20
291.73046875
 30
0.0
 10
153.51220703125
 20
410.0439453125
 30
0.0
 10
153.51220703125
 20
410.0439453125
 30
0.0
 10
185.61279296875
 20
495.2724609375
 30
0.0
 10
132.41748046875
 20
531.5
 30
0.0
 10
132.41748046875
 20
531.5
 30
0.0
 10
182.40234375
 20
608.15087890625
 30
0.0
 10
182.40234375
 20
608.15087890625
 30
0.0
 10
182.40234375
 20
608.15087890625
 30
0.0
 10
256.6923828125
 20
587.5146484375
 30
0.0
 10
323.875
 20
637.5
 30
0.0
 10
323.875
 20
637.5
 30
0.0
 10
394.724609375
 20
585.2216796875
 30
0.0
 10
465.8046875
 20
610.44384765625
 30
0.0
 10
465.8046875
 20
610.44384765625
 30
0.0
 10
515.333984375
 20
531.3330078125
 30
0.0
 10
515.333984375
 20
531.3330078125
 30
0.0
 10
515.333984375
 20
531.3330078125
 30
0.0
 10
460.3017578125
 20
483.8759765625
 30
0.0
 10
501.115234375
 20
399.4970703125
 30
0.0
 10
501.115234375
 20
399.4970703125
 30
0.0
 10
546.8916015625
 20
314.107421875
 30
0.0
 10
449.5703125
 20
236.4716796875
 30
0.0
 10
449.5703125
 20
236.4716796875
 30
0.0
 10
436.802734375
 20
228.7939453125
 30
0.0
 10
436.802734375
 20
228.7939453125
 30
0.0
  0
SPLINE
  5
44
330
1F
100
AcDbEntity
  8
Layer 2
 62
     7
370
    35
100
AcDbSpline
210
0.0
220
0.0
230
1.0
 70
    11
 71
     3
 72
    38
 73
    34
 74
     0
 42
0.0000000001
 43
0.0000000001
 40
0.0
 40
0.0
 40
0.0
 40
0.0
 40
1.0
 40
1.0
 40
1.0
 40
2.0
 40
2.0
 40
2.0
 40
3.0
 40
3.0
 40
3.0
 40
4.0
 40
4.0
 40
4.0
 40
5.0
 40
5.0
 40
5.0
 40
6.0
 40
6.0
 40
6.0
 40
7.0
 40
7.0
 40
7.0
 40
8.0
 40
8.0
 40
8.0
 40
9.0
 40
9.0
 40
9.0
 40
10.0
 40
10.0
 40
10.0
 40
11.0
 40
11.0
 40
11.0
 40
11.0
 10
407.7373046875
 20
268.30078125
 30
0.0
 10
388.205078125
 20
259.216796875
 30
0.0
 10
323.615234375
 20
228.9423828125
 30
0.0
 10
320.7333984375
 20
224.3916015625
 30
0.0
 10
320.7333984375
 20
224.3916015625
 30
0.0
 10
257.962890625
 20
256.9404296875
 30
0.0
 10
238.64794921875
 20
264.09375
 30
0.0
 10
238.64794921875
 20
264.09375
 30
0.0
 10
146.36962890625
 20
317.38671875
 30
0.0
 10
186.78662109375
 20
409.66455078125
 30
0.0
 10
186.78662109375
 20
409.66455078125
 30
0.0
 10
211.82275390625
 20
465.81884765625
 30
0.0
 10
170.33349609375
 20
494.07470703125
 30
0.0
 10
170.33349609375
 20
494.07470703125
 30
0.0
 10
209.3193359375
 20
564.177734375
 30
0.0
 10
209.3193359375
 20
564.177734375
 30
0.0
 10
209.3193359375
 20
564.177734375
 30
0.0
 10
267.26220703125
 20
548.08251953125
 30
0.0
 10
319.6591796875
 20
587.068359375
 30
0.0
 10
319.6591796875
 20
587.068359375
 30
0.0
 10
374.919921875
 20
546.29443359375
 30
0.0
 10
430.3583984375
 20
565.966796875
 30
0.0
 10
430.3583984375
 20
565.966796875
 30
0.0
 10
471.1318359375
 20
494.07470703125
 30
0.0
 10
471.1318359375
 20
494.07470703125
 30
0.0
 10
471.1318359375
 20
494.07470703125
 30
0.0
 10
426.0654296875
 20
467.24951171875
 30
0.0
 10
457.8994140625
 20
401.4384765625
 30
0.0
 10
457.8994140625
 20
401.4384765625
 30
0.0
 10
493.6015625
 20
334.83984375
 30
0.0
 10
417.6962890625
 20
274.2880859375
 30
0.0
 10
417.6962890625
 20
274.2880859375
 30
0.0
 10
407.7373046875
 20
268.30078125
 30
0.0
 10
407.7373046875
 20
268.30078125
 30
0.0
  0
SPLINE
  5
45
330
1F
100
AcDbEntity
  8
Layer 2
 62
     7
370
    35
100
AcDbSpline
210
0.0
220
0.0
230
1.0
 70
    11
 71
     3
 72
    38
 73
    34
 74
     0
 42
0.0000000001
 43
0.0000000001
 40
0.0
 40
0.0
 40
0.0
 40
0.0
 40
1.0
 40
1.0
 40
1.0
 40
2.0
 40
2.0
 40
2.0
 40
3.0
 40
3.0
 40
3.0
 40
4.0
 40
4.0
 40
4.0
 40
5.0
 40
5.0
 40
5.0
 40
6.0
 40
6.0
 40
6.0
 40
7.0
 40
7.0
 40
7.0
 40
8.0
 40
8.0
 40
8.0
 40
9.0
 40
9.0
 40
9.0
 40
10.0
 40
10.0
 40
10.0
 40
11.0
 40
11.0
 40
11.0
 40
11.0
 10
400.53125
 20
279.685546875
 30
0.0
 10
382.615234375
 20
271.3544921875
 30
0.0
 10
323.376953125
 20
243.5888671875
 30
0.0
 10
320.7333984375
 20
239.416015625
 30
0.0
 10
320.7333984375
 20
239.416015625
 30
0.0
 10
263.162109375
 20
269.2646484375
 30
0.0
 10
245.4482421875
 20
275.828125
 30
0.0
 10
245.4482421875
 20
275.828125
 30
0.0
 10
160.814453125
 20
324.703125
 30
0.0
 10
197.88232421875
 20
409.3388671875
 30
0.0
 10
197.88232421875
 20
409.3388671875
 30
0.0
 10
220.845703125
 20
470.3056640625
 30
0.0
 10
182.79296875
 20
496.220703125
 30
0.0
 10
182.79296875
 20
496.220703125
 30
0.0
 10
218.548828125
 20
551.0517578125
 30
0.0
 10
218.548828125
 20
551.0517578125
 30
0.0
 10
218.548828125
 20
551.0517578125
 30
0.0
 10
271.69140625
 20
536.2900390625
 30
0.0
 10
319.748046875
 20
572.04638671875
 30
0.0
 10
319.748046875
 20
572.04638671875
 30
0.0
 10
370.4306640625
 20
534.6494140625
 30
0.0
 10
421.27734375
 20
552.6923828125
 30
0.0
 10
421.27734375
 20
552.6923828125
 30
0.0
 10
456.70703125
 20
496.1015625
 30
0.0
 10
456.70703125
 20
496.1015625
 30
0.0
 10
456.70703125
 20
496.1015625
 30
0.0
 10
417.3408203125
 20
462.1533203125
 30
0.0
 10
446.5361328125
 20
401.79443359375
 30
0.0
 10
446.5361328125
 20
401.79443359375
 30
0.0
 10
479.28125
 20
340.7109375
 30
0.0
 10
409.6630859375
 20
285.17578125
 30
0.0
 10
409.6630859375
 20
285.17578125
 30
0.0
 10
400.53125
 20
279.685546875
 30
0.0
 10
400.53125
 20
279.685546875
 30
0.0
  0
SPLINE
  5
46
330
1F
100
AcDbEntity
  8
Layer 2
 62
     7
370
    35
100
AcDbSpline
210
0.0
220
0.0
230
1.0
 70
    11
 71
     3
 72
    29
 73
    25
 74
     0
 42
0.0000000001
 43
0.0000000001
 40
0.0
 40
0.0
 40
0.0
 40
0.0
 40
1.0
 40
1.0
 40
1.0
 40
2.0
 40
2.0
 40
2.0
 40
3.0
 40
3.0
 40
3.0
 40
4.0
 40
4.0
 40
4.0
 40
5.0
 40
5.0
 40
5.0
 40
6.0
 40
6.0
 40
6.0
 40
7.0
 40
7.0
 40
7.0
 40
8.0
 40
8.0
 40
8.0
 40
8.0
 10
326.25
 20
413.2587890625
 30
0.0
 10
326.25
 20
412.01123046875
 30
0.0
 10
325.23828125
 20
411.0
 30
0.0
 10
323.9912109375
 20
411.0
 30
0.0
 10
323.9912109375
 20
411.0
 30
0.0
 10
323.9912109375
 20
411.0
 30
0.0
 10
323.9912109375
 20
411.0
 30
0.0
 10
322.744140625
 20
411.0
 30
0.0
 10
321.732421875
 20
412.01123046875
 30
0.0
 10
321.732421875
 20
413.2587890625
 30
0.0
 10
321.732421875
 20
413.2587890625
 30
0.0
 10
321.732421875
 20
480.4912109375
 30
0.0
 10
321.732421875
 20
480.4912109375
 30
0.0
 10
321.732421875
 20
481.73876953125
 30
0.0
 10
322.744140625
 20
482.75
 30
0.0
 10
323.9912109375
 20
482.75
 30
0.0
 10
323.9912109375
 20
482.75
 30
0.0
 10
323.9912109375
 20
482.75
 30
0.0
 10
323.9912109375
 20
482.75
 30
0.0
 10
325.23828125
 20
482.75
 30
0.0
 10
326.25
 20
481.73876953125
 30
0.0
 10
326.25
 20
480.4912109375
 30
0.0
 10
326.25
 20
480.4912109375
 30
0.0
 10
326.25
 20
413.2587890625
 30
0.0
 10
326.25
 20
413.2587890625
 30
0.0
  0
SPLINE
  5
47
330
1F
100
AcDbEntity
  8
Layer 2
 62
     7
370
    35
100
AcDbSpline
210
0.0
220
0.0
230
1.0
 70
    11
 71
     3
 72
    29
 73
    25
 74
     0
 42
0.0000000001
 43
0.0000000001
 40
0.0
 40
0.0
 40
0.0
 40
0.0
 40
1.0
 40
1.0
 40
1.0
 40
2.0
 40
2.0
 40
2.0
 40
3.0
 40
3.0
 40
3.0
 40
4.0
 40
4.0
 40
4.0
 40
5.0
 40
5.0
 40
5.0
 40
6.0
 40
6.0
 40
6.0
 40
7.0
 40
7.0
 40
7.0
 40
8.0
 40
8.0
 40
8.0
 40
8.0
 10
326.0087890625
 20
329.0087890625
 30
0.0
 10
326.0087890625
 20
327.76171875
 30
0.0
 10
324.9970703125
 20
326.75
 30
0.0
 10
323.75
 20
326.75
 30
0.0
 10
323.75
 20
326.75
 30
0.0
 10
323.75
 20
326.75
 30
0.0
 10
323.75
 20
326.75
 30
0.0
 10
322.5029296875
 20
326.75
 30
0.0
 10
321.4912109375
 20
327.76171875
 30
0.0
 10
321.4912109375
 20
329.0087890625
 30
0.0
 10
321.4912109375
 20
329.0087890625
 30
0.0
 10
321.4912109375
 20
396.2412109375
 30
0.0
 10
321.4912109375
 20
396.2412109375
 30
0.0
 10
321.4912109375
 20
397.48876953125
 30
0.0
 10
322.5029296875
 20
398.5
 30
0.0
 10
323.75
 20
398.5
 30
0.0
 10
323.75
 20
398.5
 30
0.0
 10
323.75
 20
398.5
 30
0.0
 10
323.75
 20
398.5
 30
0.0
 10
324.9970703125
 20
398.5
 30
0.0
 10
326.0087890625
 20
397.48876953125
 30
0.0
 10
326.0087890625
 20
396.2412109375
 30
0.0
 10
326.0087890625
 20
396.2412109375
 30
0.0
 10
326.0087890625
 20
329.0087890625
 30
0.0
 10
326.0087890625
 20
329.0087890625
 30
0.0
  0
SPLINE
  5
48
330
1F
100
AcDbEntity
  8
Layer 2
 62
     7
370
    35
100
AcDbSpline
210
0.0
220
0.0
230
1.0
 70
    11
 71
     3
 72
    29
 73
    25
 74
     0
 42
0.0000000001
 43
0.0000000001
 40
0.0
 40
0.0
 40
0.0
 40
0.0
 40
1.0
 40
1.0
 40
1.0
 40
2.0
 40
2.0
 40
2.0
 40
3.0
 40
3.0
 40
3.0
 40
4.0
 40
4.0
 40
4.0
 40
5.0
 40
5.0
 40
5.0
 40
6.0
 40
6.0
 40
6.0
 40
7.0
 40
7.0
 40
7.0
 40
8.0
 40
8.0
 40
8.0
 40
8.0
 10
370.154296875
 20
344.7880859375
 30
0.0
 10
370.89453125
 20
343.783203125
 30
0.0
 10
370.677734375
 20
342.369140625
 30
0.0
 10
369.6728515625
 20
341.6298828125
 30
0.0
 10
369.6728515625
 20
341.6298828125
 30
0.0
 10
369.6728515625
 20
341.6298828125
 30
0.0
 10
369.6728515625
 20
341.6298828125
 30
0.0
 10
368.66796875
 20
340.8916015625
 30
0.0
 10
367.25390625
 20
341.107421875
 30
0.0
 10
366.515625
 20
342.111328125
 30
0.0
 10
366.515625
 20
342.111328125
 30
0.0
 10
326.689453125
 20
396.2783203125
 30
0.0
 10
326.689453125
 20
396.2783203125
 30
0.0
 10
325.9501953125
 20
397.2841796875
 30
0.0
 10
326.166015625
 20
398.6982421875
 30
0.0
 10
327.1708984375
 20
399.4365234375
 30
0.0
 10
327.1708984375
 20
399.4365234375
 30
0.0
 10
327.1708984375
 20
399.4365234375
 30
0.0
 10
327.1708984375
 20
399.4365234375
 30
0.0
 10
328.17578125
 20
400.1748046875
 30
0.0
 10
329.5888671875
 20
399.958984375
 30
0.0
 10
330.3291015625
 20
398.955078125
 30
0.0
 10
330.3291015625
 20
398.955078125
 30
0.0
 10
370.154296875
 20
344.7880859375
 30
0.0
 10
370.154296875
 20
344.7880859375
 30
0.0
  0
SPLINE
  5
49
330
1F
100
AcDbEntity
  8
Layer 2
 62
     7
370
    35
100
AcDbSpline
210
0.0
220
0.0
230
1.0
 70
    11
 71
     3
 72
    29
 73
    25
 74
     0
 42
0.0000000001
 43
0.0000000001
 40
0.0
 40
0.0
 40
0.0
 40
0.0
 40
1.0
 40
1.0
 40
1.0
 40
2.0
 40
2.0
 40
2.0
 40
3.0
 40
3.0
 40
3.0
 40
4.0
 40
4.0
 40
4.0
 40
5.0
 40
5.0
 40
5.0
 40
6.0
 40
6.0
 40
6.0
 40
7.0
 40
7.0
 40
7.0
 40
8.0
 40
8.0
 40
8.0
 40
8.0
 10
276.82861328125
 20
344.7880859375
 30
0.0
 10
276.08837890625
 20
343.783203125
 30
0.0
 10
276.30517578125
 20
342.369140625
 30
0.0
 10
277.31005859375
 20
341.6298828125
 30
0.0
 10
277.31005859375
 20
341.6298828125
 30
0.0
 10
277.31005859375
 20
341.6298828125
 30
0.0
 10
277.31005859375
 20
341.6298828125
 30
0.0
 10
278.31494140625
 20
340.8916015625
 30
0.0
 10
279.72900390625
 20
341.107421875
 30
0.0
 10
280.46728515625
 20
342.111328125
 30
0.0
 10
280.46728515625
 20
342.111328125
 30
0.0
 10
320.29296875
 20
396.2783203125
 30
0.0
 10
320.29296875
 20
396.2783203125
 30
0.0
 10
321.033203125
 20
397.2841796875
 30
0.0
 10
320.81640625
 20
398.6982421875
 30
0.0
 10
319.8125
 20
399.4365234375
 30
0.0
 10
319.8125
 20
399.4365234375
 30
0.0
 10
319.8125
 20
399.4365234375
 30
0.0
 10
319.8125
 20
399.4365234375
 30
0.0
 10
318.806640625
 20
400.1748046875
 30
0.0
 10
317.39453125
 20
399.958984375
 30
0.0
 10
316.654296875
 20
398.955078125
 30
0.0
 10
316.654296875
 20
398.955078125
 30
0.0
 10
276.82861328125
 20
344.7880859375
 30
0.0
 10
276.82861328125
 20
344.7880859375
 30
0.0
  0
SPLINE
  5
4A
330
1F
100
AcDbEntity
  8
Layer 2
 62
     7
370
    35
100
AcDbSpline
210
0.0
220
0.0
230
1.0
 70
    11
 71
     3
 72
    29
 73
    25
 74
     0
 42
0.0000000001
 43
0.0000000001
 40
0.0
 40
0.0
 40
0.0
 40
0.0
 40
1.0
 40
1.0
 40
1.0
 40
2.0
 40
2.0
 40
2.0
 40
3.0
 40
3.0
 40
3.0
 40
4.0
 40
4.0
 40
4.0
 40
5.0
 40
5.0
 40
5.0
 40
6.0
 40
6.0
 40
6.0
 40
7.0
 40
7.0
 40
7.0
 40
8.0
 40
8.0
 40
8.0
 40
8.0
 10
251.56494140625
 20
380.025390625
 30
0.0
 10
250.39794921875
 20
379.583984375
 30
0.0
 10
249.81103515625
 20
378.279296875
 30
0.0
 10
250.2529296875
 20
377.11328125
 30
0.0
 10
250.2529296875
 20
377.11328125
 30
0.0
 10
250.2529296875
 20
377.11328125
 30
0.0
 10
250.2529296875
 20
377.11328125
 30
0.0
 10
250.6953125
 20
375.947265625
 30
0.0
 10
251.99951171875
 20
375.359375
 30
0.0
 10
253.1650390625
 20
375.8017578125
 30
0.0
 10
253.1650390625
 20
375.8017578125
 30
0.0
 10
316.033203125
 20
399.62939453125
 30
0.0
 10
316.033203125
 20
399.62939453125
 30
0.0
 10
317.201171875
 20
400.0712890625
 30
0.0
 10
317.787109375
 20
401.3759765625
 30
0.0
 10
317.345703125
 20
402.54150390625
 30
0.0
 10
317.345703125
 20
402.54150390625
 30
0.0
 10
317.345703125
 20
402.54150390625
 30
0.0
 10
317.345703125
 20
402.54150390625
 30
0.0
 10
316.90234375
 20
403.70751953125
 30
0.0
 10
315.599609375
 20
404.29443359375
 30
0.0
 10
314.43359375
 20
403.853515625
 30
0.0
 10
314.43359375
 20
403.853515625
 30
0.0
 10
251.56494140625
 20
380.025390625
 30
0.0
 10
251.56494140625
 20
380.025390625
 30
0.0
  0
SPLINE
  5
4B
330
1F
100
AcDbEntity
  8
Layer 2
 62
     7
370
    35
100
AcDbSpline
210
0.0
220
0.0
230
1.0
 70
    11
 71
     3
 72
    29
 73
    25
 74
     0
 42
0.0000000001
 43
0.0000000001
 40
0.0
 40
0.0
 40
0.0
 40
0.0
 40
1.0
 40
1.0
 40
1.0
 40
2.0
 40
2.0
 40
2.0
 40
3.0
 40
3.0
 40
3.0
 40
4.0
 40
4.0
 40
4.0
 40
5.0
 40
5.0
 40
5.0
 40
6.0
 40
6.0
 40
6.0
 40
7.0
 40
7.0
 40
7.0
 40
8.0
 40
8.0
 40
8.0
 40
8.0
 10
394.783203125
 20
380.025390625
 30
0.0
 10
395.94921875
 20
379.583984375
 30
0.0
 10
396.537109375
 20
378.279296875
 30
0.0
 10
396.0947265625
 20
377.11328125
 30
0.0
 10
396.0947265625
 20
377.11328125
 30
0.0
 10
396.0947265625
 20
377.11328125
 30
0.0
 10
396.0947265625
 20
377.11328125
 30
0.0
 10
395.65234375
 20
375.947265625
 30
0.0
 10
394.34765625
 20
375.359375
 30
0.0
 10
393.1826171875
 20
375.8017578125
 30
0.0
 10
393.1826171875
 20
375.8017578125
 30
0.0
 10
330.314453125
 20
399.62939453125
 30
0.0
 10
330.314453125
 20
399.62939453125
 30
0.0
 10
329.146484375
 20
400.0712890625
 30
0.0
 10
328.560546875
 20
401.3759765625
 30
0.0
 10
329.001953125
 20
402.54150390625
 30
0.0
 10
329.001953125
 20
402.54150390625
 30
0.0
 10
329.001953125
 20
402.54150390625
 30
0.0
 10
329.001953125
 20
402.54150390625
 30
0.0
 10
329.4453125
 20
403.70751953125
 30
0.0
 10
330.748046875
 20
404.29443359375
 30
0.0
 10
331.9140625
 20
403.853515625
 30
0.0
 10
331.9140625
 20
403.853515625
 30
0.0
 10
394.783203125
 20
380.025390625
 30
0.0
 10
394.783203125
 20
380.025390625
 30
0.0
  0
SPLINE
  5
4C
330
1F
100
AcDbEntity
  8
Layer 2
 62
     7
370
    35
100
AcDbSpline
210
0.0
220
0.0
230
1.0
 70
    11
 71
     3
 72
    29
 73
    25
 74
     0
 42
0.0000000001
 43
0.0000000001
 40
0.0
 40
0.0
 40
0.0
 40
0.0
 40
1.0
 40
1.0
 40
1.0
 40
2.0
 40
2.0
 40
2.0
 40
3.0
 40
3.0
 40
3.0
 40
4.0
 40
4.0
 40
4.0
 40
5.0
 40
5.0
 40
5.0
 40
6.0
 40
6.0
 40
6.0
 40
7.0
 40
7.0
 40
7.0
 40
8.0
 40
8.0
 40
8.0
 40
8.0
 10
396.1630859375
 20
428.8369140625
 30
0.0
 10
397.3525390625
 20
429.20849609375
 30
0.0
 10
398.6201171875
 20
428.54443359375
 30
0.0
 10
398.9912109375
 20
427.35400390625
 30
0.0
 10
398.9912109375
 20
427.35400390625
 30
0.0
 10
398.9912109375
 20
427.35400390625
 30
0.0
 10
398.9912109375
 20
427.35400390625
 30
0.0
 10
399.36328125
 20
426.16357421875
 30
0.0
 10
398.6982421875
 20
424.8955078125
 30
0.0
 10
397.5078125
 20
424.52490234375
 30
0.0
 10
397.5078125
 20
424.52490234375
 30
0.0
 10
333.3291015625
 20
404.49560546875
 30
0.0
 10
333.3291015625
 20
404.49560546875
 30
0.0
 10
332.1376953125
 20
404.12255859375
 30
0.0
 10
330.87109375
 20
404.7880859375
 30
0.0
 10
330.5
 20
405.97802734375
 30
0.0
 10
330.5
 20
405.97802734375
 30
0.0
 10
330.5
 20
405.97802734375
 30
0.0
 10
330.5
 20
405.97802734375
 30
0.0
 10
330.1298828125
 20
407.1689453125
 30
0.0
 10
330.79296875
 20
408.4345703125
 30
0.0
 10
331.9833984375
 20
408.806640625
 30
0.0
 10
331.9833984375
 20
408.806640625
 30
0.0
 10
396.1630859375
 20
428.8369140625
 30
0.0
 10
396.1630859375
 20
428.8369140625
 30
0.0
  0
SPLINE
  5
4D
330
1F
100
AcDbEntity
  8
Layer 2
 62
     7
370
    35
100
AcDbSpline
210
0.0
220
0.0
230
1.0
 70
    11
 71
     3
 72
    29
 73
    25
 74
     0
 42
0.0000000001
 43
0.0000000001
 40
0.0
 40
0.0
 40
0.0
 40
0.0
 40
1.0
 40
1.0
 40
1.0
 40
2.0
 40
2.0
 40
2.0
 40
3.0
 40
3.0
 40
3.0
 40
4.0
 40
4.0
 40
4.0
 40
5.0
 40
5.0
 40
5.0
 40
6.0
 40
6.0
 40
6.0
 40
7.0
 40
7.0
 40
7.0
 40
8.0
 40
8.0
 40
8.0
 40
8.0
 10
369.365234375
 20
465.458984375
 30
0.0
 10
370.1337890625
 20
466.44091796875
 30
0.0
 10
371.5537109375
 20
466.61474609375
 30
0.0
 10
372.53515625
 20
465.84619140625
 30
0.0
 10
372.53515625
 20
465.84619140625
 30
0.0
 10
372.53515625
 20
465.84619140625
 30
0.0
 10
372.53515625
 20
465.84619140625
 30
0.0
 10
373.517578125
 20
465.0771484375
 30
0.0
 10
373.6904296875
 20
463.65625
 30
0.0
 10
372.919921875
 20
462.67431640625
 30
0.0
 10
372.919921875
 20
462.67431640625
 30
0.0
 10
331.4794921875
 20
409.73486328125
 30
0.0
 10
331.4794921875
 20
409.73486328125
 30
0.0
 10
330.7099609375
 20
408.7509765625
 30
0.0
 10
329.2900390625
 20
408.57861328125
 30
0.0
 10
328.30859375
 20
409.34765625
 30
0.0
 10
328.30859375
 20
409.34765625
 30
0.0
 10
328.30859375
 20
409.34765625
 30
0.0
 10
328.30859375
 20
409.34765625
 30
0.0
 10
327.3271484375
 20
410.11767578125
 30
0.0
 10
327.1552734375
 20
411.53515625
 30
0.0
 10
327.9228515625
 20
412.517578125
 30
0.0
 10
327.9228515625
 20
412.517578125
 30
0.0
 10
369.365234375
 20
465.458984375
 30
0.0
 10
369.365234375
 20
465.458984375
 30
0.0
  0
SPLINE
  5
4E
330
1F
100
AcDbEntity
  8
Layer 2
 62
     7
370
    35
100
AcDbSpline
210
0.0
220
0.0
230
1.0
 70
    11
 71
     3
 72
    29
 73
    25
 74
     0
 42
0.0000000001
 43
0.0000000001
 40
0.0
 40
0.0
 40
0.0
 40
0.0
 40
1.0
 40
1.0
 40
1.0
 40
2.0
 40
2.0
 40
2.0
 40
3.0
 40
3.0
 40
3.0
 40
4.0
 40
4.0
 40
4.0
 40
5.0
 40
5.0
 40
5.0
 40
6.0
 40
6.0
 40
6.0
 40
7.0
 40
7.0
 40
7.0
 40
8.0
 40
8.0
 40
8.0
 40
8.0
 10
251.4052734375
 20
429.189453125
 30
0.0
 10
250.2158203125
 20
429.5615234375
 30
0.0
 10
248.9482421875
 20
428.8974609375
 30
0.0
 10
248.5771484375
 20
427.7060546875
 30
0.0
 10
248.5771484375
 20
427.7060546875
 30
0.0
 10
248.5771484375
 20
427.7060546875
 30
0.0
 10
248.5771484375
 20
427.7060546875
 30
0.0
 10
248.205078125
 20
426.5166015625
 30
0.0
 10
248.8701171875
 20
425.248046875
 30
0.0
 10
250.060546875
 20
424.8779296875
 30
0.0
 10
250.060546875
 20
424.8779296875
 30
0.0
 10
314.2392578125
 20
404.8486328125
 30
0.0
 10
314.2392578125
 20
404.8486328125
 30
0.0
 10
315.4306640625
 20
404.4755859375
 30
0.0
 10
316.697265625
 20
405.140625
 30
0.0
 10
317.068359375
 20
406.3310546875
 30
0.0
 10
317.068359375
 20
406.3310546875
 30
0.0
 10
317.068359375
 20
406.3310546875
 30
0.0
 10
317.068359375
 20
406.3310546875
 30
0.0
 10
317.4384765625
 20
407.521484375
 30
0.0
 10
316.775390625
 20
408.787109375
 30
0.0
 10
315.5849609375
 20
409.1591796875
 30
0.0
 10
315.5849609375
 20
409.1591796875
 30
0.0
 10
251.4052734375
 20
429.189453125
 30
0.0
 10
251.4052734375
 20
429.189453125
 30
0.0
  0
SPLINE
  5
4F
330
1F
100
AcDbEntity
  8
Layer 2
 62
     7
370
    35
100
AcDbSpline
210
0.0
220
0.0
230
1.0
 70
    11
 71
     3
 72
    29
 73
    25
 74
     0
 42
0.0000000001
 43
0.0000000001
 40
0.0
 40
0.0
 40
0.0
 40
0.0
 40
1.0
 40
1.0
 40
1.0
 40
2.0
 40
2.0
 40
2.0
 40
3.0
 40
3.0
 40
3.0
 40
4.0
 40
4.0
 40
4.0
 40
5.0
 40
5.0
 40
5.0
 40
6.0
 40
6.0
 40
6.0
 40
7.0
 40
7.0
 40
7.0
 40
8.0
 40
8.0
 40
8.0
 40
8.0
 10
278.203125
 20
465.8115234375
 30
0.0
 10
277.4345703125
 20
466.79345703125
 30
0.0
 10
276.0146484375
 20
466.96728515625
 30
0.0
 10
275.033203125
 20
466.19873046875
 30
0.0
 10
275.033203125
 20
466.19873046875
 30
0.0
 10
275.033203125
 20
466.19873046875
 30
0.0
 10
275.033203125
 20
466.19873046875
 30
0.0
 10
274.05078125
 20
465.4296875
 30
0.0
 10
273.8779296875
 20
464.0087890625
 30
0.0
 10
274.6484375
 20
463.02685546875
 30
0.0
 10
274.6484375
 20
463.02685546875
 30
0.0
 10
316.0888671875
 20
410.0869140625
 30
0.0
 10
316.0888671875
 20
410.0869140625
 30
0.0
 10
316.8583984375
 20
409.103515625
 30
0.0
 10
318.2783203125
 20
408.9306640625
 30
0.0
 10
319.259765625
 20
409.7001953125
 30
0.0
 10
319.259765625
 20
409.7001953125
 30
0.0
 10
319.259765625
 20
409.7001953125
 30
0.0
 10
319.259765625
 20
409.7001953125
 30
0.0
 10
320.2412109375
 20
410.4697265625
 30
0.0
 10
320.4130859375
 20
411.8876953125
 30
0.0
 10
319.6455078125
 20
412.8701171875
 30
0.0
 10
319.6455078125
 20
412.8701171875
 30
0.0
 10
278.203125
 20
465.8115234375
 30
0.0
 10
278.203125
 20
465.8115234375
 30
0.0
  0
SPLINE
  5
50
330
1F
100
AcDbEntity
  8
Layer 2
 62
     7
370
    35
100
AcDbSpline
210
0.0
220
0.0
230
1.0
 70
    11
 71
     3
 72
    17
 73
    13
 74
     0
 42
0.0000000001
 43
0.0000000001
 40
0.0
 40
0.0
 40
0.0
 40
0.0
 40
1.0
 40
1.0
 40
1.0
 40
2.0
 40
2.0
 40
2.0
 40
3.0
 40
3.0
 40
3.0
 40
4.0
 40
4.0
 40
4.0
 40
4.0
 10
326.25
 20
478.125
 30
0.0
 10
326.25
 20
478.125
 30
0.0
 10
337.453125
 20
456.716796875
 30
0.0
 10
367.4765625
 20
463.0458984375
 30
0.0
 10
367.4765625
 20
463.0458984375
 30
0.0
 10
327.48828125
 20
411.52294921875
 30
0.0
 10
327.48828125
 20
411.52294921875
 30
0.0
 10
327.48828125
 20
411.52294921875
 30
0.0
 10
326.0087890625
 20
412.2607421875
 30
0.0
 10
326.0087890625
 20
412.2607421875
 30
0.0
 10
326.0087890625
 20
412.2607421875
 30
0.0
 10
326.25
 20
478.125
 30
0.0
 10
326.25
 20
478.125
 30
0.0
  0
SPLINE
  5
51
330
1F
100
AcDbEntity
  8
Layer 2
 62
     7
370
    35
100
AcDbSpline
210
0.0
220
0.0
230
1.0
 70
    11
 71
     3
 72
    17
 73
    13
 74
     0
 42
0.0000000001
 43
0.0000000001
 40
0.0
 40
0.0
 40
0.0
 40
0.0
 40
1.0
 40
1.0
 40
1.0
 40
2.0
 40
2.0
 40
2.0
 40
3.0
 40
3.0
 40
3.0
 40
4.0
 40
4.0
 40
4.0
 40
4.0
 10
371.3857421875
 20
460.71435546875
 30
0.0
 10
371.3857421875
 20
460.71435546875
 30
0.0
 10
372.478515625
 20
431.9423828125
 30
0.0
 10
393.9892578125
 20
428.15869140625
 30
0.0
 10
393.9892578125
 20
428.15869140625
 30
0.0
 10
331.9833984375
 20
408.806640625
 30
0.0
 10
331.9833984375
 20
408.806640625
 30
0.0
 10
331.9833984375
 20
408.806640625
 30
0.0
 10
330.896484375
 20
409.2197265625
 30
0.0
 10
330.896484375
 20
409.2197265625
 30
0.0
 10
330.896484375
 20
409.2197265625
 30
0.0
 10
371.3857421875
 20
460.71435546875
 30
0.0
 10
371.3857421875
 20
460.71435546875
 30
0.0
  0
SPLINE
  5
52
330
1F
100
AcDbEntity
  8
Layer 2
 62
     7
370
    35
100
AcDbSpline
210
0.0
220
0.0
230
1.0
 70
    11
 71
     3
 72
    17
 73
    13
 74
     0
 42
0.0000000001
 43
0.0000000001
 40
0.0
 40
0.0
 40
0.0
 40
0.0
 40
1.0
 40
1.0
 40
1.0
 40
2.0
 40
2.0
 40
2.0
 40
3.0
 40
3.0
 40
3.0
 40
4.0
 40
4.0
 40
4.0
 40
4.0
 10
333.3291015625
 20
404.49560546875
 30
0.0
 10
333.3291015625
 20
404.49560546875
 30
0.0
 10
394.703125
 20
423.6494140625
 30
0.0
 10
394.703125
 20
423.6494140625
 30
0.0
 10
394.703125
 20
423.6494140625
 30
0.0
 10
387.06640625
 20
405.92578125
 30
0.0
 10
394.783203125
 20
380.025390625
 30
0.0
 10
394.783203125
 20
380.025390625
 30
0.0
 10
333.3291015625
 20
403.3173828125
 30
0.0
 10
333.3291015625
 20
403.3173828125
 30
0.0
 10
333.3291015625
 20
403.3173828125
 30
0.0
 10
333.3291015625
 20
404.49560546875
 30
0.0
 10
333.3291015625
 20
404.49560546875
 30
0.0
  0
SPLINE
  5
53
330
1F
100
AcDbEntity
  8
Layer 2
 62
     7
370
    35
100
AcDbSpline
210
0.0
220
0.0
230
1.0
 70
    11
 71
     3
 72
    17
 73
    13
 74
     0
 42
0.0000000001
 43
0.0000000001
 40
0.0
 40
0.0
 40
0.0
 40
0.0
 40
1.0
 40
1.0
 40
1.0
 40
2.0
 40
2.0
 40
2.0
 40
3.0
 40
3.0
 40
3.0
 40
4.0
 40
4.0
 40
4.0
 40
4.0
 10
331.7373046875
 20
399.09033203125
 30
0.0
 10
331.7373046875
 20
399.09033203125
 30
0.0
 10
393.1826171875
 20
375.8017578125
 30
0.0
 10
393.1826171875
 20
375.8017578125
 30
0.0
 10
393.1826171875
 20
375.8017578125
 30
0.0
 10
380.12109375
 20
371.9375
 30
0.0
 10
368.873046875
 20
346.53125
 30
0.0
 10
368.873046875
 20
346.53125
 30
0.0
 10
330.896484375
 20
398.18359375
 30
0.0
 10
330.896484375
 20
398.18359375
 30
0.0
 10
330.896484375
 20
398.18359375
 30
0.0
 10
331.7373046875
 20
399.09033203125
 30
0.0
 10
331.7373046875
 20
399.09033203125
 30
0.0
  0
SPLINE
  5
54
330
1F
100
AcDbEntity
  8
Layer 2
 62
     7
370
    35
100
AcDbSpline
210
0.0
220
0.0
230
1.0
 70
    11
 71
     3
 72
    17
 73
    13
 74
     0
 42
0.0000000001
 43
0.0000000001
 40
0.0
 40
0.0
 40
0.0
 40
0.0
 40
1.0
 40
1.0
 40
1.0
 40
2.0
 40
2.0
 40
2.0
 40
3.0
 40
3.0
 40
3.0
 40
4.0
 40
4.0
 40
4.0
 40
4.0
 10
365.279296875
 20
343.79296875
 30
0.0
 10
365.279296875
 20
343.79296875
 30
0.0
 10
341.1845703125
 20
343.6669921875
 30
0.0
 10
326.0087890625
 20
330.1669921875
 30
0.0
 10
326.0087890625
 20
330.1669921875
 30
0.0
 10
326.0087890625
 20
396.2412109375
 30
0.0
 10
326.0087890625
 20
396.2412109375
 30
0.0
 10
326.0087890625
 20
396.2412109375
 30
0.0
 10
326.689453125
 20
396.2783203125
 30
0.0
 10
326.689453125
 20
396.2783203125
 30
0.0
 10
326.689453125
 20
396.2783203125
 30
0.0
 10
365.279296875
 20
343.79296875
 30
0.0
 10
365.279296875
 20
343.79296875
 30
0.0
  0
SPLINE
  5
55
330
1F
100
AcDbEntity
  8
Layer 2
 62
     7
370
    35
100
AcDbSpline
210
0.0
220
0.0
230
1.0
 70
     8
 71
     3
 72
    17
 73
    13
 74
     0
 42
0.0000000001
 43
0.0000000001
 40
0.0
 40
0.0
 40
0.0
 40
0.0
 40
1.0
 40
1.0
 40
1.0
 40
2.0
 40
2.0
 40
2.0
 40
3.0
 40
3.0
 40
3.0
 40
4.0
 40
4.0
 40
4.0
 40
4.0
 10
320.29296875
 20
396.2783203125
 30
0.0
 10
320.29296875
 20
396.2783203125
 30
0.0
 10
281.85888671875
 20
344.00390625
 30
0.0
 10
281.85888671875
 20
344.00390625
 30
0.0
 10
281.85888671875
 20
344.00390625
 30
0.0
 10
305.732421875
 20
349.5
 30
0.0
 10
321.4912109375
 20
330.9169921875
 30
0.0
 10
321.4912109375
 20
330.9169921875
 30
0.0
 10
321.4912109375
 20
396.0
 30
0.0
 10
321.4912109375
 20
396.0
 30
0.0
 10
321.4912109375
 20
396.0
 30
0.0
 10
320.732421875
 20
396.2783203125
 30
0.0
 10
320.732421875
 20
396.2783203125
 30
0.0
  0
SPLINE
  5
56
330
1F
100
AcDbEntity
  8
Layer 2
 62
     7
370
    35
100
AcDbSpline
210
0.0
220
0.0
230
1.0
 70
    11
 71
     3
 72
    17
 73
    13
 74
     0
 42
0.0000000001
 43
0.0000000001
 40
0.0
 40
0.0
 40
0.0
 40
0.0
 40
1.0
 40
1.0
 40
1.0
 40
2.0
 40
2.0
 40
2.0
 40
3.0
 40
3.0
 40
3.0
 40
4.0
 40
4.0
 40
4.0
 40
4.0
 10
321.732421875
 20
413.2587890625
 30
0.0
 10
321.732421875
 20
413.2587890625
 30
0.0
 10
321.732421875
 20
477.625
 30
0.0
 10
321.732421875
 20
477.625
 30
0.0
 10
321.732421875
 20
477.625
 30
0.0
 10
310.69140625
 20
463.2744140625
 30
0.0
 10
280.345703125
 20
463.07470703125
 30
0.0
 10
280.345703125
 20
463.07470703125
 30
0.0
 10
319.6455078125
 20
412.8701171875
 30
0.0
 10
319.6455078125
 20
412.8701171875
 30
0.0
 10
319.6455078125
 20
412.8701171875
 30
0.0
 10
320.96484375
 20
410.767578125
 30
0.0
 10
321.732421875
 20
413.2587890625
 30
0.0
  0
SPLINE
  5
57
330
1F
100
AcDbEntity
  8
Layer 2
 62
     7
370
    35
100
AcDbSpline
210
0.0
220
0.0
230
1.0
 70
    11
 71
     3
 72
    17
 73
    13
 74
     0
 42
0.0000000001
 43
0.0000000001
 40
0.0
 40
0.0
 40
0.0
 40
0.0
 40
1.0
 40
1.0
 40
1.0
 40
2.0
 40
2.0
 40
2.0
 40
3.0
 40
3.0
 40
3.0
 40
4.0
 40
4.0
 40
4.0
 40
4.0
 10
276.916015625
 20
460.1298828125
 30
0.0
 10
276.916015625
 20
460.1298828125
 30
0.0
 10
316.0888671875
 20
410.0869140625
 30
0.0
 10
316.0888671875
 20
410.0869140625
 30
0.0
 10
316.0888671875
 20
410.0869140625
 30
0.0
 10
316.22265625
 20
408.96044921875
 30
0.0
 10
315.5849609375
 20
409.1591796875
 30
0.0
 10
314.947265625
 20
409.35791015625
 30
0.0
 10
253.58837890625
 20
428.50830078125
 30
0.0
 10
253.58837890625
 20
428.50830078125
 30
0.0
 10
253.58837890625
 20
428.50830078125
 30
0.0
 10
275.70703125
 20
440.509765625
 30
0.0
 10
276.916015625
 20
460.1298828125
 30
0.0
  0
SPLINE
  5
58
330
1F
100
AcDbEntity
  8
Layer 2
 62
     7
370
    35
100
AcDbSpline
210
0.0
220
0.0
230
1.0
 70
    11
 71
     3
 72
    17
 73
    13
 74
     0
 42
0.0000000001
 43
0.0000000001
 40
0.0
 40
0.0
 40
0.0
 40
0.0
 40
1.0
 40
1.0
 40
1.0
 40
2.0
 40
2.0
 40
2.0
 40
3.0
 40
3.0
 40
3.0
 40
4.0
 40
4.0
 40
4.0
 40
4.0
 10
316.033203125
 20
399.62939453125
 30
0.0
 10
316.033203125
 20
399.62939453125
 30
0.0
 10
254.767578125
 20
376.4091796875
 30
0.0
 10
254.767578125
 20
376.4091796875
 30
0.0
 10
254.767578125
 20
376.4091796875
 30
0.0
 10
279.0
 20
363.3125
 30
0.0
 10
277.5
 20
346.53125
 30
0.0
 10
277.5
 20
346.53125
 30
0.0
 10
316.654296875
 20
398.955078125
 30
0.0
 10
316.654296875
 20
398.955078125
 30
0.0
 10
316.654296875
 20
398.955078125
 30
0.0
 10
316.033203125
 20
399.62939453125
 30
0.0
 10
316.033203125
 20
399.62939453125
 30
0.0
  0
SPLINE
  5
59
330
1F
100
AcDbEntity
  8
Layer 2
 62
     7
370
    35
100
AcDbSpline
210
0.0
220
0.0
230
1.0
 70
    11
 71
     3
 72
    17
 73
    13
 74
     0
 42
0.0000000001
 43
0.0000000001
 40
0.0
 40
0.0
 40
0.0
 40
0.0
 40
1.0
 40
1.0
 40
1.0
 40
2.0
 40
2.0
 40
2.0
 40
3.0
 40
3.0
 40
3.0
 40
4.0
 40
4.0
 40
4.0
 40
4.0
 10
251.330078125
 20
424.4814453125
 30
0.0
 10
251.330078125
 20
424.4814453125
 30
0.0
 10
314.2392578125
 20
404.8486328125
 30
0.0
 10
314.2392578125
 20
404.8486328125
 30
0.0
 10
314.2392578125
 20
404.8486328125
 30
0.0
 10
316.0107421875
 20
403.9345703125
 30
0.0
 10
315.125
 20
404.3916015625
 30
0.0
 10
314.2392578125
 20
404.8486328125
 30
0.0
 10
252.86767578125
 20
380.51953125
 30
0.0
 10
252.86767578125
 20
380.51953125
 30
0.0
 10
252.86767578125
 20
380.51953125
 30
0.0
 10
258.91015625
 20
411.462890625
 30
0.0
 10
251.330078125
 20
424.4814453125
 30
0.0
  0
POLYLINE
  5
5A
330
1F
100
AcDbEntity
  8
Layer 2
 62
     7
370
    35
100
AcDb2dPolyline
 66
     1
 10
0.0
 20
0.0
 30
0.0
  0
VERTEX
  5
5B
330
5A
100
AcDbEntity
  8
Layer 2
 62
     7
370
    35
100
AcDbVertex
100
AcDb2dVertex
 10
357.9990234375
 20
461.89404296875
 30
0.0
  0
VERTEX
  5
5C
330
5A
100
AcDbEntity
  8
Layer 2
 62
     7
370
    35
100
AcDbVertex
100
AcDb2dVertex
 10
326.0087890625
 20
412.2607421875
 30
0.0
  0
SEQEND
  5
5D
330
5A
100
AcDbEntity
  8
Layer 2
370
    35
  0
POLYLINE
  5
5E
330
1F
100
AcDbEntity
  8
Layer 2
 62
     7
370
    35
100
AcDb2dPolyline
 66
     1
 10
0.0
 20
0.0
 30
0.0
  0
VERTEX
  5
5F
330
5E
100
AcDbEntity
  8
Layer 2
 62
     7
370
    35
100
AcDbVertex
100
AcDb2dVertex
 10
345.3798828125
 20
463.4970703125
 30
0.0
  0
VERTEX
  5
60
330
5E
100
AcDbEntity
  8
Layer 2
 62
     7
370
    35
100
AcDbVertex
100
AcDb2dVertex
 10
326.25
 20
413.2587890625
 30
0.0
  0
SEQEND
  5
61
330
5E
100
AcDbEntity
  8
Layer 2
370
    35
  0
POLYLINE
  5
62
330
1F
100
AcDbEntity
  8
Layer 2
 62
     7
370
    35
100
AcDb2dPolyline
 66
     1
 10
0.0
 20
0.0
 30
0.0
  0
VERTEX
  5
63
330
62
100
AcDbEntity
  8
Layer 2
 62
     7
370
    35
100
AcDbVertex
100
AcDb2dVertex
 10
336.8623046875
 20
467.37744140625
 30
0.0
  0
VERTEX
  5
64
330
62
100
AcDbEntity
  8
Layer 2
 62
     7
370
    35
100
AcDbVertex
100
AcDb2dVertex
 10
326.0087890625
 20
412.2607421875
 30
0.0
  0
SEQEND
  5
65
330
62
100
AcDbEntity
  8
Layer 2
370
    35
  0
POLYLINE
  5
66
330
1F
100
AcDbEntity
  8
Layer 2
 62
     7
370
    35
100
AcDb2dPolyline
 66
     1
 10
0.0
 20
0.0
 30
0.0
  0
VERTEX
  5
67
330
66
100
AcDbEntity
  8
Layer 2
 62
     7
370
    35
100
AcDbVertex
100
AcDb2dVertex
 10
313.533203125
 20
471.060546875
 30
0.0
  0
VERTEX
  5
68
330
66
100
AcDbEntity
  8
Layer 2
 62
     7
370
    35
100
AcDbVertex
100
AcDb2dVertex
 10
321.732421875
 20
411.52294921875
 30
0.0
  0
SEQEND
  5
69
330
66
100
AcDbEntity
  8
Layer 2
370
    35
  0
POLYLINE
  5
6A
330
1F
100
AcDbEntity
  8
Layer 2
 62
     7
370
    35
100
AcDb2dPolyline
 66
     1
 10
0.0
 20
0.0
 30
0.0
  0
VERTEX
  5
6B
330
6A
100
AcDbEntity
  8
Layer 2
 62
     7
370
    35
100
AcDbVertex
100
AcDb2dVertex
 10
305.767578125
 20
467.37744140625
 30
0.0
  0
VERTEX
  5
6C
330
6A
100
AcDbEntity
  8
Layer 2
 62
     7
370
    35
100
AcDbVertex
100
AcDb2dVertex
 10
320.732421875
 20
413.2587890625
 30
0.0
  0
SEQEND
  5
6D
330
6A
100
AcDbEntity
  8
Layer 2
370
    35
  0
POLYLINE
  5
6E
330
1F
100
AcDbEntity
  8
Layer 2
 62
     7
370
    35
100
AcDb2dPolyline
 66
     1
 10
0.0
 20
0.0
 30
0.0
  0
VERTEX
  5
6F
330
6E
100
AcDbEntity
  8
Layer 2
 62
     7
370
    35
100
AcDbVertex
100
AcDb2dVertex
 10
294.44384765625
 20
464.3115234375
 30
0.0
  0
VERTEX
  5
70
330
6E
100
AcDbEntity
  8
Layer 2
 62
     7
370
    35
100
AcDbVertex
100
AcDb2dVertex
 10
320.732421875
 20
413.2587890625
 30
0.0
  0
SEQEND
  5
71
330
6E
100
AcDbEntity
  8
Layer 2
370
    35
  0
POLYLINE
  5
72
330
1F
100
AcDbEntity
  8
Layer 2
 62
     7
370
    35
100
AcDb2dPolyline
 66
     1
 10
0.0
 20
0.0
 30
0.0
  0
VERTEX
  5
73
330
72
100
AcDbEntity
  8
Layer 2
 62
     7
370
    35
100
AcDbVertex
100
AcDb2dVertex
 10
275.04296875
 20
451.66943359375
 30
0.0
  0
VERTEX
  5
74
330
72
100
AcDbEntity
  8
Layer 2
 62
     7
370
    35
100
AcDbVertex
100
AcDb2dVertex
 10
316.0888671875
 20
410.0869140625
 30
0.0
  0
SEQEND
  5
75
330
72
100
AcDbEntity
  8
Layer 2
370
    35
  0
POLYLINE
  5
76
330
1F
100
AcDbEntity
  8
Layer 2
 62
     7
370
    35
100
AcDb2dPolyline
 66
     1
 10
0.0
 20
0.0
 30
0.0
  0
VERTEX
  5
77
330
76
100
AcDbEntity
  8
Layer 2
 62
     7
370
    35
100
AcDbVertex
100
AcDb2dVertex
 10
270.40576171875
 20
443.322265625
 30
0.0
  0
VERTEX
  5
78
330
76
100
AcDbEntity
  8
Layer 2
 62
     7
370
    35
100
AcDbVertex
100
AcDb2dVertex
 10
316.654296875
 20
408.806640625
 30
0.0
  0
SEQEND
  5
79
330
76
100
AcDbEntity
  8
Layer 2
370
    35
  0
POLYLINE
  5
7A
330
1F
100
AcDbEntity
  8
Layer 2
 62
     7
370
    35
100
AcDb2dPolyline
 66
     1
 10
0.0
 20
0.0
 30
0.0
  0
VERTEX
  5
7B
330
7A
100
AcDbEntity
  8
Layer 2
 62
     7
370
    35
100
AcDbVertex
100
AcDb2dVertex
 10
262.91650390625
 20
435.23681640625
 30
0.0
  0
VERTEX
  5
7C
330
7A
100
AcDbEntity
  8
Layer 2
 62
     7
370
    35
100
AcDbVertex
100
AcDb2dVertex
 10
316.654296875
 20
408.806640625
 30
0.0
  0
SEQEND
  5
7D
330
7A
100
AcDbEntity
  8
Layer 2
370
    35
  0
POLYLINE
  5
7E
330
1F
100
AcDbEntity
  8
Layer 2
 62
     7
370
    35
100
AcDb2dPolyline
 66
     1
 10
0.0
 20
0.0
 30
0.0
  0
VERTEX
  5
7F
330
7E
100
AcDbEntity
  8
Layer 2
 62
     7
370
    35
100
AcDbVertex
100
AcDb2dVertex
 10
254.6357421875
 20
413.2587890625
 30
0.0
  0
VERTEX
  5
80
330
7E
100
AcDbEntity
  8
Layer 2
 62
     7
370
    35
100
AcDbVertex
100
AcDb2dVertex
 10
315.125
 20
404.3916015625
 30
0.0
  0
SEQEND
  5
81
330
7E
100
AcDbEntity
  8
Layer 2
370
    35
  0
POLYLINE
  5
82
330
1F
100
AcDbEntity
  8
Layer 2
 62
     7
370
    35
100
AcDb2dPolyline
 66
     1
 10
0.0
 20
0.0
 30
0.0
  0
VERTEX
  5
83
330
82
100
AcDbEntity
  8
Layer 2
 62
     7
370
    35
100
AcDbVertex
100
AcDb2dVertex
 10
254.767578125
 20
402.50048828125
 30
0.0
  0
VERTEX
  5
84
330
82
100
AcDbEntity
  8
Layer 2
 62
     7
370
    35
100
AcDbVertex
100
AcDb2dVertex
 10
315.125
 20
404.3916015625
 30
0.0
  0
SEQEND
  5
85
330
82
100
AcDbEntity
  8
Layer 2
370
    35
  0
POLYLINE
  5
86
330
1F
100
AcDbEntity
  8
Layer 2
 62
     7
370
    35
100
AcDb2dPolyline
 66
     1
 10
0.0
 20
0.0
 30
0.0
  0
VERTEX
  5
87
330
86
100
AcDbEntity
  8
Layer 2
 62
     7
370
    35
100
AcDbVertex
100
AcDb2dVertex
 10
254.32373046875
 20
390.498046875
 30
0.0
  0
VERTEX
  5
88
330
86
100
AcDbEntity
  8
Layer 2
 62
     7
370
    35
100
AcDbVertex
100
AcDb2dVertex
 10
316.654296875
 20
404.3916015625
 30
0.0
  0
SEQEND
  5
89
330
86
100
AcDbEntity
  8
Layer 2
370
    35
  0
POLYLINE
  5
8A
330
1F
100
AcDbEntity
  8
Layer 2
 62
     7
370
    35
100
AcDb2dPolyline
 66
     1
 10
0.0
 20
0.0
 30
0.0
  0
VERTEX
  5
8B
330
8A
100
AcDbEntity
  8
Layer 2
 62
     7
370
    35
100
AcDbVertex
100
AcDb2dVertex
 10
316.033203125
 20
399.62939453125
 30
0.0
  0
VERTEX
  5
8C
330
8A
100
AcDbEntity
  8
Layer 2
 62
     7
370
    35
100
AcDbVertex
100
AcDb2dVertex
 10
262.91650390625
 20
370.533203125
 30
0.0
  0
SEQEND
  5
8D
330
8A
100
AcDbEntity
  8
Layer 2
370
    35
  0
POLYLINE
  5
8E
330
1F
100
AcDbEntity
  8
Layer 2
 62
     7
370
    35
100
AcDb2dPolyline
 66
     1
 10
0.0
 20
0.0
 30
0.0
  0
VERTEX
  5
8F
330
8E
100
AcDbEntity
  8
Layer 2
 62
     7
370
    35
100
AcDbVertex
100
AcDb2dVertex
 10
316.033203125
 20
399.62939453125
 30
0.0
  0
VERTEX
  5
90
330
8E
100
AcDbEntity
  8
Layer 2
 62
     7
370
    35
100
AcDbVertex
100
AcDb2dVertex
 10
269.654296875
 20
364.830078125
 30
0.0
  0
SEQEND
  5
91
330
8E
100
AcDbEntity
  8
Layer 2
370
    35
  0
POLYLINE
  5
92
330
1F
100
AcDbEntity
  8
Layer 2
 62
     7
370
    35
100
AcDb2dPolyline
 66
     1
 10
0.0
 20
0.0
 30
0.0
  0
VERTEX
  5
93
330
92
100
AcDbEntity
  8
Layer 2
 62
     7
370
    35
100
AcDbVertex
100
AcDb2dVertex
 10
316.033203125
 20
399.62939453125
 30
0.0
  0
VERTEX
  5
94
330
92
100
AcDbEntity
  8
Layer 2
 62
     7
370
    35
100
AcDbVertex
100
AcDb2dVertex
 10
276.388671875
 20
357.4970703125
 30
0.0
  0
SEQEND
  5
95
330
92
100
AcDbEntity
  8
Layer 2
370
    35
  0
POLYLINE
  5
96
330
1F
100
AcDbEntity
  8
Layer 2
 62
     7
370
    35
100
AcDb2dPolyline
 66
     1
 10
0.0
 20
0.0
 30
0.0
  0
VERTEX
  5
97
330
96
100
AcDbEntity
  8
Layer 2
 62
     7
370
    35
100
AcDbVertex
100
AcDb2dVertex
 10
321.732421875
 20
397.23828125
 30
0.0
  0
VERTEX
  5
98
330
96
100
AcDbEntity
  8
Layer 2
 62
     7
370
    35
100
AcDbVertex
100
AcDb2dVertex
 10
304.5
 20
343.6640625
 30
0.0
  0
SEQEND
  5
99
330
96
100
AcDbEntity
  8
Layer 2
370
    35
  0
POLYLINE
  5
9A
330
1F
100
AcDbEntity
  8
Layer 2
 62
     7
370
    35
100
AcDb2dPolyline
 66
     1
 10
0.0
 20
0.0
 30
0.0
  0
VERTEX
  5
9B
330
9A
100
AcDbEntity
  8
Layer 2
 62
     7
370
    35
100
AcDbVertex
100
AcDb2dVertex
 10
321.732421875
 20
397.23828125
 30
0.0
  0
VERTEX
  5
9C
330
9A
100
AcDbEntity
  8
Layer 2
 62
     7
370
    35
100
AcDbVertex
100
AcDb2dVertex
 10
292.84375
 20
343.6640625
 30
0.0
  0
SEQEND
  5
9D
330
9A
100
AcDbEntity
  8
Layer 2
370
    35
  0
POLYLINE
  5
9E
330
1F
100
AcDbEntity
  8
Layer 2
 62
     7
370
    35
100
AcDb2dPolyline
 66
     1
 10
0.0
 20
0.0
 30
0.0
  0
VERTEX
  5
9F
330
9E
100
AcDbEntity
  8
Layer 2
 62
     7
370
    35
100
AcDbVertex
100
AcDb2dVertex
 10
321.732421875
 20
397.23828125
 30
0.0
  0
VERTEX
  5
A0
330
9E
100
AcDbEntity
  8
Layer 2
 62
     7
370
    35
100
AcDbVertex
100
AcDb2dVertex
 10
313.25
 20
338.224609375
 30
0.0
  0
SEQEND
  5
A1
330
9E
100
AcDbEntity
  8
Layer 2
370
    35
  0
POLYLINE
  5
A2
330
1F
100
AcDbEntity
  8
Layer 2
 62
     7
370
    35
100
AcDb2dPolyline
 66
     1
 10
0.0
 20
0.0
 30
0.0
  0
VERTEX
  5
A3
330
A2
100
AcDbEntity
  8
Layer 2
 62
     7
370
    35
100
AcDbVertex
100
AcDb2dVertex
 10
326.689453125
 20
396.2783203125
 30
0.0
  0
VERTEX
  5
A4
330
A2
100
AcDbEntity
  8
Layer 2
 62
     7
370
    35
100
AcDbVertex
100
AcDb2dVertex
 10
344.68359375
 20
340.27734375
 30
0.0
  0
SEQEND
  5
A5
330
A2
100
AcDbEntity
  8
Layer 2
370
    35
  0
POLYLINE
  5
A6
330
1F
100
AcDbEntity
  8
Layer 2
 62
     7
370
    35
100
AcDb2dPolyline
 66
     1
 10
0.0
 20
0.0
 30
0.0
  0
VERTEX
  5
A7
330
A6
100
AcDbEntity
  8
Layer 2
 62
     7
370
    35
100
AcDbVertex
100
AcDb2dVertex
 10
326.689453125
 20
396.2783203125
 30
0.0
  0
VERTEX
  5
A8
330
A6
100
AcDbEntity
  8
Layer 2
 62
     7
370
    35
100
AcDbVertex
100
AcDb2dVertex
 10
354.5107421875
 20
342.6630859375
 30
0.0
  0
SEQEND
  5
A9
330
A6
100
AcDbEntity
  8
Layer 2
370
    35
  0
POLYLINE
  5
AA
330
1F
100
AcDbEntity
  8
Layer 2
 62
     7
370
    35
100
AcDb2dPolyline
 66
     1
 10
0.0
 20
0.0
 30
0.0
  0
VERTEX
  5
AB
330
AA
100
AcDbEntity
  8
Layer 2
 62
     7
370
    35
100
AcDbVertex
100
AcDb2dVertex
 10
326.0087890625
 20
396.2412109375
 30
0.0
  0
VERTEX
  5
AC
330
AA
100
AcDbEntity
  8
Layer 2
 62
     7
370
    35
100
AcDbVertex
100
AcDb2dVertex
 10
334.30078125
 20
335.9189453125
 30
0.0
  0
SEQEND
  5
AD
330
AA
100
AcDbEntity
  8
Layer 2
370
    35
  0
POLYLINE
  5
AE
330
1F
100
AcDbEntity
  8
Layer 2
 62
     7
370
    35
100
AcDb2dPolyline
 66
     1
 10
0.0
 20
0.0
 30
0.0
  0
VERTEX
  5
AF
330
AE
100
AcDbEntity
  8
Layer 2
 62
     7
370
    35
100
AcDbVertex
100
AcDb2dVertex
 10
330.896484375
 20
409.2197265625
 30
0.0
  0
VERTEX
  5
B0
330
AE
100
AcDbEntity
  8
Layer 2
 62
     7
370
    35
100
AcDbVertex
100
AcDb2dVertex
 10
378.2265625
 20
438.78515625
 30
0.0
  0
SEQEND
  5
B1
330
AE
100
AcDbEntity
  8
Layer 2
370
    35
  0
POLYLINE
  5
B2
330
1F
100
AcDbEntity
  8
Layer 2
 62
     7
370
    35
100
AcDb2dPolyline
 66
     1
 10
0.0
 20
0.0
 30
0.0
  0
VERTEX
  5
B3
330
B2
100
AcDbEntity
  8
Layer 2
 62
     7
370
    35
100
AcDbVertex
100
AcDb2dVertex
 10
373.876953125
 20
447.9501953125
 30
0.0
  0
VERTEX
  5
B4
330
B2
100
AcDbEntity
  8
Layer 2
 62
     7
370
    35
100
AcDbVertex
100
AcDb2dVertex
 10
328.30859375
 20
409.34765625
 30
0.0
  0
SEQEND
  5
B5
330
B2
100
AcDbEntity
  8
Layer 2
370
    35
  0
POLYLINE
  5
B6
330
1F
100
AcDbEntity
  8
Layer 2
 62
     7
370
    35
100
AcDb2dPolyline
 66
     1
 10
0.0
 20
0.0
 30
0.0
  0
VERTEX
  5
B7
330
B6
100
AcDbEntity
  8
Layer 2
 62
     7
370
    35
100
AcDbVertex
100
AcDb2dVertex
 10
383.17578125
 20
433.16796875
 30
0.0
  0
VERTEX
  5
B8
330
B6
100
AcDbEntity
  8
Layer 2
 62
     7
370
    35
100
AcDbVertex
100
AcDb2dVertex
 10
330.896484375
 20
408.0654296875
 30
0.0
  0
SEQEND
  5
B9
330
B6
100
AcDbEntity
  8
Layer 2
370
    35
  0
POLYLINE
  5
BA
330
1F
100
AcDbEntity
  8
Layer 2
 62
     7
370
    35
100
AcDb2dPolyline
 66
     1
 10
0.0
 20
0.0
 30
0.0
  0
VERTEX
  5
BB
330
BA
100
AcDbEntity
  8
Layer 2
 62
     7
370
    35
100
AcDbVertex
100
AcDb2dVertex
 10
391.3427734375
 20
401.83740234375
 30
0.0
  0
VERTEX
  5
BC
330
BA
100
AcDbEntity
  8
Layer 2
 62
     7
370
    35
100
AcDbVertex
100
AcDb2dVertex
 10
331.9140625
 20
403.853515625
 30
0.0
  0
SEQEND
  5
BD
330
BA
100
AcDbEntity
  8
Layer 2
370
    35
  0
POLYLINE
  5
BE
330
1F
100
AcDbEntity
  8
Layer 2
 62
     7
370
    35
100
AcDb2dPolyline
 66
     1
 10
0.0
 20
0.0
 30
0.0
  0
VERTEX
  5
BF
330
BE
100
AcDbEntity
  8
Layer 2
 62
     7
370
    35
100
AcDbVertex
100
AcDb2dVertex
 10
392.083984375
 20
413.2587890625
 30
0.0
  0
VERTEX
  5
C0
330
BE
100
AcDbEntity
  8
Layer 2
 62
     7
370
    35
100
AcDbVertex
100
AcDb2dVertex
 10
328.8544921875
 20
403.4462890625
 30
0.0
  0
SEQEND
  5
C1
330
BE
100
AcDbEntity
  8
Layer 2
370
    35
  0
POLYLINE
  5
C2
330
1F
100
AcDbEntity
  8
Layer 2
 62
     7
370
    35
100
AcDb2dPolyline
 66
     1
 10
0.0
 20
0.0
 30
0.0
  0
VERTEX
  5
C3
330
C2
100
AcDbEntity
  8
Layer 2
 62
     7
370
    35
100
AcDbVertex
100
AcDb2dVertex
 10
392.3671875
 20
390.498046875
 30
0.0
  0
VERTEX
  5
C4
330
C2
100
AcDbEntity
  8
Layer 2
 62
     7
370
    35
100
AcDbVertex
100
AcDb2dVertex
 10
329.8330078125
 20
403.59814453125
 30
0.0
  0
SEQEND
  5
C5
330
C2
100
AcDbEntity
  8
Layer 2
370
    35
  0
POLYLINE
  5
C6
330
1F
100
AcDbEntity
  8
Layer 2
 62
     7
370
    35
100
AcDb2dPolyline
 66
     1
 10
0.0
 20
0.0
 30
0.0
  0
VERTEX
  5
C7
330
C6
100
AcDbEntity
  8
Layer 2
 62
     7
370
    35
100
AcDbVertex
100
AcDb2dVertex
 10
378.7314453125
 20
363.59765625
 30
0.0
  0
VERTEX
  5
C8
330
C6
100
AcDbEntity
  8
Layer 2
 62
     7
370
    35
100
AcDbVertex
100
AcDb2dVertex
 10
328.8544921875
 20
399.09033203125
 30
0.0
  0
SEQEND
  5
C9
330
C6
100
AcDbEntity
  8
Layer 2
370
    35
  0
POLYLINE
  5
CA
330
1F
100
AcDbEntity
  8
Layer 2
 62
     7
370
    35
100
AcDb2dPolyline
 66
     1
 10
0.0
 20
0.0
 30
0.0
  0
VERTEX
  5
CB
330
CA
100
AcDbEntity
  8
Layer 2
 62
     7
370
    35
100
AcDbVertex
100
AcDb2dVertex
 10
384.98046875
 20
370.451171875
 30
0.0
  0
VERTEX
  5
CC
330
CA
100
AcDbEntity
  8
Layer 2
 62
     7
370
    35
100
AcDbVertex
100
AcDb2dVertex
 10
328.8544921875
 20
399.09033203125
 30
0.0
  0
SEQEND
  5
CD
330
CA
100
AcDbEntity
  8
Layer 2
370
    35
  0
POLYLINE
  5
CE
330
1F
100
AcDbEntity
  8
Layer 2
 62
     7
370
    35
100
AcDb2dPolyline
 66
     1
 10
0.0
 20
0.0
 30
0.0
  0
VERTEX
  5
CF
330
CE
100
AcDbEntity
  8
Layer 2
 62
     7
370
    35
100
AcDbVertex
100
AcDb2dVertex
 10
373.103515625
 20
355.0068359375
 30
0.0
  0
VERTEX
  5
D0
330
CE
100
AcDbEntity
  8
Layer 2
 62
     7
370
    35
100
AcDbVertex
100
AcDb2dVertex
 10
330.3291015625
 20
398.955078125
 30
0.0
  0
SEQEND
  5
D1
330
CE
100
AcDbEntity
  8
Layer 2
370
    35
  0
INSERT
  5
D3
330
1F
100
AcDbEntity
  8
Layer 2
100
AcDbBlockReference
  2
block 2
 10
0.0
 20
0.0
 30
0.0
  0
INSERT
  5
DF
330
1F
100
AcDbEntity
  8
Layer 2
100
AcDbBlockReference
  2
block 3
 10
0.0
 20
0.0
 30
0.0
  0
ENDSEC
  0
SECTION
  2
OBJECTS
  0
DICTIONARY
  5
C
330
0
100
AcDbDictionary
281
     1
  3
ACAD_GROUP
350
D
  3
ACAD_IMAGE_DICT
350
3C
  3
ACAD_IMAGE_VARS
350
3E
  3
ACAD_LAYOUT
350
1A
  3
ACAD_MLINESTYLE
350
17
  3
ACAD_PLOTSETTINGS
350
19
  3
ACAD_PLOTSTYLENAME
350
E
  3
ACAD_TABLESTYLE
350
EA
  3
ACAD_VISUALSTYLE
350
2A
  0
IMAGEDEF_REACTOR
  5
40
330
3F
100
AcDbRasterImageDefReactor
 90
        2
330
3F
  0
DICTIONARY
  5
D
102
{ACAD_REACTORS
330
C
102
}
330
C
100
AcDbDictionary
281
     1
  0
DICTIONARY
  5
3C
102
{ACAD_REACTORS
330
C
102
}
330
C
100
AcDbDictionary
281
     1
  3
C:\Users\NPA\Desktop\PULogo_1.png
350
3D
  0
RASTERVARIABLES
  5
3E
102
{ACAD_REACTORS
330
C
102
}
330
C
100
AcDbRasterVariables
 90
        0
 70
     0
 71
     1
 72
     0
  0
DICTIONARY
  5
1A
102
{ACAD_REACTORS
330
C
102
}
330
C
100
AcDbDictionary
281
     1
  3
Layout1
350
1E
  3
Layout2
350
26
  3
Model
350
22
  0
DICTIONARY
  5
17
102
{ACAD_REACTORS
330
C
102
}
330
C
100
AcDbDictionary
281
     1
  3
Standard
350
18
  0
DICTIONARY
  5
19
102
{ACAD_REACTORS
330
C
102
}
330
C
100
AcDbDictionary
281
     1
  0
ACDBDICTIONARYWDFLT
  5
E
102
{ACAD_REACTORS
330
C
102
}
330
C
100
AcDbDictionary
281
     1
  3
Normal
350
F
100
AcDbDictionaryWithDefault
340
F
  0
DICTIONARY
  5
EA
102
{ACAD_REACTORS
330
C
102
}
330
C
100
AcDbDictionary
281
     1
  0
DICTIONARY
  5
2A
102
{ACAD_REACTORS
330
C
102
}
330
C
100
AcDbDictionary
281
     1
  3
2dWireframe
350
2F
  3
3D Hidden
350
31
  3
3dWireframe
350
30
  3
Basic
350
32
  3
Brighten
350
36
  3
ColorChange
350
3A
  3
Conceptual
350
34
  3
Dim
350
35
  3
Facepattern
350
39
  3
Flat
350
2B
  3
FlatWithEdges
350
2C
  3
Gouraud
350
2D
  3
GouraudWithEdges
350
2E
  3
Linepattern
350
38
  3
Realistic
350
33
  3
Thicken
350
37
  0
IMAGEDEF
  5
3D
102
{ACAD_REACTORS
330
3C
330
40
102
}
330
3C
100
AcDbRasterImageDef
 90
        0
  1
C:\Users\NPA\Desktop\PULogo_1.png
 10
150.0
 20
180.0
 11
0.3527777777777777
 21
0.3527777777777777
280
     1
281
     5
  0
LAYOUT
  5
1E
102
{ACAD_REACTORS
330
1A
102
}
330
1A
100
AcDbPlotSettings
  1

  2
none_device
  4

  6

 40
0.0
 41
0.0
 42
0.0
 43
0.0
 44
0.0
 45
0.0
 46
0.0
 47
0.0
 48
0.0
 49
0.0
140
0.0
141
0.0
142
1.0
143
1.0
 70
   688
 72
     0
 73
     0
 74
     5
  7

 75
    16
147
1.0
148
0.0
149
0.0
100
AcDbLayout
  1
Layout1
 70
     1
 71
     1
 10
0.0
 20
0.0
 11
12.0
 21
9.0
 12
0.0
 22
0.0
 32
0.0
 14
1.000000000000000E+20
 24
1.000000000000000E+20
 34
1.000000000000000E+20
 15
-1.000000000000000E+20
 25
-1.000000000000000E+20
 35
-1.000000000000000E+20
146
0.0
 13
0.0
 23
0.0
 33
0.0
 16
1.0
 26
0.0
 36
0.0
 17
0.0
 27
1.0
 37
0.0
 76
     0
330
1B
  0
LAYOUT
  5
26
102
{ACAD_REACTORS
330
1A
102
}
330
1A
100
AcDbPlotSettings
  1

  2
none_device
  4

  6

 40
0.0
 41
0.0
 42
0.0
 43
0.0
 44
0.0
 45
0.0
 46
0.0
 47
0.0
 48
0.0
 49
0.0
140
0.0
141
0.0
142
1.0
143
1.0
 70
   688
 72
     0
 73
     0
 74
     5
  7

 75
    16
147
1.0
148
0.0
149
0.0
100
AcDbLayout
  1
Layout2
 70
     1
 71
     2
 10
0.0
 20
0.0
 11
0.0
 21
0.0
 12
0.0
 22
0.0
 32
0.0
 14
0.0
 24
0.0
 34
0.0
 15
0.0
 25
0.0
 35
0.0
146
0.0
 13
0.0
 23
0.0
 33
0.0
 16
1.0
 26
0.0
 36
0.0
 17
0.0
 27
1.0
 37
0.0
 76
     0
330
23
  0
LAYOUT
  5
22
102
{ACAD_REACTORS
330
1A
102
}
330
1A
100
AcDbPlotSettings
  1

  2
none_device
  4

  6

 40
0.0
 41
0.0
 42
0.0
 43
0.0
 44
0.0
 45
0.0
 46
0.0
 47
0.0
 48
0.0
 49
0.0
140
0.0
141
0.0
142
1.0
143
1.0
 70
  1712
 72
     0
 73
     0
 74
     0
  7

 75
     0
147
1.0
148
0.0
149
0.0
100
AcDbLayout
  1
Model
 70
     1
 71
     0
 10
0.0
 20
0.0
 11
12.0
 21
9.0
 12
0.0
 22
0.0
 32
0.0
 14
1.000000000000000E+20
 24
1.000000000000000E+20
 34
1.000000000000000E+20
 15
-1.000000000000000E+20
 25
-1.000000000000000E+20
 35
-1.000000000000000E+20
146
0.0
 13
0.0
 23
0.0
 33
0.0
 16
1.0
 26
0.0
 36
0.0
 17
0.0
 27
1.0
 37
0.0
 76
     0
330
1F
331
29
  0
MLINESTYLE
  5
18
102
{ACAD_REACTORS
330
17
102
}
330
17
100
AcDbMlineStyle
  2
Standard
 70
     0
  3

 62
   256
 51
90.0
 52
90.0
 71
     2
 49
0.5
 62
   256
  6
BYLAYER
 49
-0.5
 62
   256
  6
BYLAYER
  0
ACDBPLACEHOLDER
  5
F
102
{ACAD_REACTORS
330
E
102
}
330
E
  0
VISUALSTYLE
  5
2F
102
{ACAD_REACTORS
330
2A
102
}
330
2A
100
AcDbVisualStyle
  2
2dWireframe
 70
     4
 71
     0
 72
     2
 73
     0
 90
        0
 40
-0.6
 41
-30.0
 62
     5
 63
     7
 74
     1
 91
        4
 64
     7
 65
   257
 75
     1
175
     1
 42
1.0
 92
        0
 66
   257
 43
1.0
 76
     1
 77
     6
 78
     2
 67
     7
 79
     5
170
     0
171
     0
290
     0
174
     0
 93
        1
 44
0.0
173
     0
291
     0
 45
0.0
1001
ACAD
1000
AcDbSavedByObjectVersion
1070
     0
  0
VISUALSTYLE
  5
31
102
{ACAD_REACTORS
330
2A
102
}
330
2A
100
AcDbVisualStyle
  2
3D Hidden
 70
     6
 71
     1
 72
     2
 73
     2
 90
        0
 40
-0.6
 41
-30.0
 62
     5
 63
     7
 74
     2
 91
        2
 64
     7
 65
   257
 75
     2
175
     1
 42
40.0
 92
        0
 66
   257
 43
1.0
 76
     1
 77
     6
 78
     2
 67
     7
 79
     3
170
     0
171
     0
290
     0
174
     0
 93
        1
 44
0.0
173
     0
291
     0
 45
0.0
1001
ACAD
1000
AcDbSavedByObjectVersion
1070
     0
  0
VISUALSTYLE
  5
30
102
{ACAD_REACTORS
330
2A
102
}
330
2A
100
AcDbVisualStyle
  2
3dWireframe
 70
     5
 71
     0
 72
     2
 73
     0
 90
        0
 40
-0.6
 41
-30.0
 62
     5
 63
     7
 74
     1
 91
        4
 64
     7
 65
   257
 75
     1
175
     1
 42
1.0
 92
        0
 66
   257
 43
1.0
 76
     1
 77
     6
 78
     2
 67
     7
 79
     5
170
     0
171
     0
290
     0
174
     0
 93
        1
 44
0.0
173
     0
291
     0
 45
0.0
1001
ACAD
1000
AcDbSavedByObjectVersion
1070
     0
  0
VISUALSTYLE
  5
32
102
{ACAD_REACTORS
330
2A
102
}
330
2A
100
AcDbVisualStyle
  2
Basic
 70
     7
 71
     1
 72
     0
 73
     1
 90
        0
 40
-0.6
 41
-30.0
 62
     5
 63
     7
 74
     0
 91
        4
 64
     7
 65
   257
 75
     1
175
     1
 42
1.0
 92
        8
 66
     7
 43
1.0
 76
     1
 77
     6
 78
     2
 67
     7
 79
     5
170
     0
171
     0
290
     0
174
     0
 93
        1
 44
0.0
173
     0
291
     1
 45
0.0
1001
ACAD
1000
AcDbSavedByObjectVersion
1070
     0
  0
VISUALSTYLE
  5
36
102
{ACAD_REACTORS
330
2A
102
}
330
2A
100
AcDbVisualStyle
  2
Brighten
 70
    12
 71
     2
 72
     2
 73
     0
 90
        0
 40
-0.6
 41
-30.0
 62
     5
 63
     7
 74
     1
 91
        4
 64
     7
 65
   257
 75
     1
175
     1
 42
1.0
 92
        8
 66
     7
 43
1.0
 76
     1
 77
     6
 78
     2
 67
     7
 79
     5
170
     0
171
     0
290
     0
174
     0
 93
        1
 44
50.0
173
     0
291
     1
 45
0.0
1001
ACAD
1000
AcDbSavedByObjectVersion
1070
     0
  0
VISUALSTYLE
  5
3A
102
{ACAD_REACTORS
330
2A
102
}
330
2A
100
AcDbVisualStyle
  2
ColorChange
 70
    16
 71
     2
 72
     2
 73
     3
 90
        0
 40
-0.6
 41
-30.0
 62
     5
 63
     8
 74
     1
 91
        4
 64
     7
 65
   257
 75
     1
175
     1
 42
1.0
 92
        8
 66
     8
 43
1.0
 76
     1
 77
     6
 78
     2
 67
     7
 79
     5
170
     0
171
     0
290
     0
174
     0
 93
        1
 44
0.0
173
     0
291
     1
 45
0.0
1001
ACAD
1000
AcDbSavedByObjectVersion
1070
     0
  0
VISUALSTYLE
  5
34
102
{ACAD_REACTORS
330
2A
102
}
330
2A
100
AcDbVisualStyle
  2
Conceptual
 70
     9
 71
     3
 72
     2
 73
     0
 90
        0
 40
-0.6
 41
-30.0
 62
     5
 63
     7
 74
     2
 91
        2
 64
     7
 65
   257
 75
     1
175
     1
 42
40.0
 92
        8
 66
     7
 43
1.0
 76
     1
 77
     6
 78
     2
 67
     7
 79
     3
170
     0
171
     0
290
     0
174
     0
 93
        1
 44
0.0
173
     0
291
     0
 45
0.0
1001
ACAD
1000
AcDbSavedByObjectVersion
1070
     0
  0
VISUALSTYLE
  5
35
102
{ACAD_REACTORS
330
2A
102
}
330
2A
100
AcDbVisualStyle
  2
Dim
 70
    11
 71
     2
 72
     2
 73
     0
 90
        0
 40
-0.6
 41
-30.0
 62
     5
 63
     7
 74
     1
 91
        4
 64
     7
 65
   257
 75
     1
175
     1
 42
1.0
 92
        8
 66
     7
 43
1.0
 76
     1
 77
     6
 78
     2
 67
     7
 79
     5
170
     0
171
     0
290
     0
174
     0
 93
        1
 44
-50.0
173
     0
291
     1
 45
0.0
1001
ACAD
1000
AcDbSavedByObjectVersion
1070
     0
  0
VISUALSTYLE
  5
39
102
{ACAD_REACTORS
330
2A
102
}
330
2A
100
AcDbVisualStyle
  2
Facepattern
 70
    15
 71
     2
 72
     2
 73
     0
 90
        0
 40
-0.6
 41
-30.0
 62
     5
 63
     7
 74
     1
 91
        4
 64
     7
 65
   257
 75
     1
175
     1
 42
1.0
 92
        8
 66
     7
 43
1.0
 76
     1
 77
     6
 78
     2
 67
     7
 79
     5
170
     0
171
     0
290
     0
174
     0
 93
        1
 44
0.0
173
     0
291
     1
 45
0.0
1001
ACAD
1000
AcDbSavedByObjectVersion
1070
     0
  0
VISUALSTYLE
  5
2B
102
{ACAD_REACTORS
330
2A
102
}
330
2A
100
AcDbVisualStyle
  2
Flat
 70
     0
 71
     2
 72
     1
 73
     1
 90
        2
 40
-0.6
 41
30.0
 62
     5
 63
     7
 74
     0
 91
        4
 64
     7
 65
   257
 75
     1
175
     1
 42
1.0
 92
        8
 66
     7
 43
1.0
 76
     1
 77
     6
 78
     2
 67
     7
 79
     5
170
     0
171
     0
290
     0
174
     0
 93
       13
 44
0.0
173
     0
291
     1
 45
0.0
1001
ACAD
1000
AcDbSavedByObjectVersion
1070
     0
  0
VISUALSTYLE
  5
2C
102
{ACAD_REACTORS
330
2A
102
}
330
2A
100
AcDbVisualStyle
  2
FlatWithEdges
 70
     1
 71
     2
 72
     1
 73
     1
 90
        2
 40
-0.6
 41
30.0
 62
     5
 63
     7
 74
     1
 91
        4
 64
     7
 65
   257
 75
     1
175
     1
 42
1.0
 92
        0
 66
   257
 43
1.0
 76
     1
 77
     6
 78
     2
 67
     7
 79
     5
170
     0
171
     0
290
     0
174
     0
 93
       13
 44
0.0
173
     0
291
     1
 45
0.0
1001
ACAD
1000
AcDbSavedByObjectVersion
1070
     0
  0
VISUALSTYLE
  5
2D
102
{ACAD_REACTORS
330
2A
102
}
330
2A
100
AcDbVisualStyle
  2
Gouraud
 70
     2
 71
     2
 72
     2
 73
     1
 90
        2
 40
-0.6
 41
30.0
 62
     5
 63
     7
 74
     0
 91
        4
 64
     7
 65
   257
 75
     1
175
     1
 42
1.0
 92
        0
 66
     7
 43
1.0
 76
     1
 77
     6
 78
     2
 67
     7
 79
     5
170
     0
171
     0
290
     0
174
     0
 93
       13
 44
0.0
173
     0
291
     1
 45
0.0
1001
ACAD
1000
AcDbSavedByObjectVersion
1070
     0
  0
VISUALSTYLE
  5
2E
102
{ACAD_REACTORS
330
2A
102
}
330
2A
100
AcDbVisualStyle
  2
GouraudWithEdges
 70
     3
 71
     2
 72
     2
 73
     1
 90
        2
 40
-0.6
 41
30.0
 62
     5
 63
     7
 74
     1
 91
        4
 64
     7
 65
   257
 75
     1
175
     1
 42
1.0
 92
        0
 66
   257
 43
1.0
 76
     1
 77
     6
 78
     2
 67
     7
 79
     5
170
     0
171
     0
290
     0
174
     0
 93
       13
 44
0.0
173
     0
291
     1
 45
0.0
1001
ACAD
1000
AcDbSavedByObjectVersion
1070
     0
  0
VISUALSTYLE
  5
38
102
{ACAD_REACTORS
330
2A
102
}
330
2A
100
AcDbVisualStyle
  2
Linepattern
 70
    14
 71
     2
 72
     2
 73
     0
 90
        0
 40
-0.6
 41
-30.0
 62
     5
 63
     7
 74
     1
 91
        4
 64
     7
 65
   257
 75
     7
175
     7
 42
1.0
 92
        8
 66
     7
 43
1.0
 76
     1
 77
     6
 78
     2
 67
     7
 79
     5
170
     0
171
     0
290
     0
174
     0
 93
        1
 44
0.0
173
     0
291
     1
 45
0.0
1001
ACAD
1000
AcDbSavedByObjectVersion
1070
     0
  0
VISUALSTYLE
  5
33
102
{ACAD_REACTORS
330
2A
102
}
330
2A
100
AcDbVisualStyle
  2
Realistic
 70
     8
 71
     2
 72
     2
 73
     0
 90
        0
 40
-0.6
 41
-30.0
 62
     5
 63
     7
 74
     1
 91
        0
 64
     7
 65
   257
 75
     1
175
     1
 42
1.0
 92
        8
 66
     8
 43
1.0
 76
     1
 77
     6
 78
     2
 67
     7
 79
     5
170
     0
171
     0
290
     0
174
     0
 93
       13
 44
0.0
173
     0
291
     0
 45
0.0
1001
ACAD
1000
AcDbSavedByObjectVersion
1070
     0
  0
VISUALSTYLE
  5
37
102
{ACAD_REACTORS
330
2A
102
}
330
2A
100
AcDbVisualStyle
  2
Thicken
 70
    13
 71
     2
 72
     2
 73
     0
 90
        0
 40
-0.6
 41
-30.0
 62
     5
 63
     7
 74
     1
 91
        4
 64
     7
 65
   257
 75
     1
175
     1
 42
1.0
 92
       12
 66
     7
 43
1.0
 76
     1
 77
     6
 78
     2
 67
     7
 79
     5
170
     0
171
     0
290
     0
174
     0
 93
        1
 44
0.0
173
     0
291
     1
 45
0.0
1001
ACAD
1000
AcDbSavedByObjectVersion
1070
     0
  0
ENDSEC
  0
EOF
